<svg width="32" height="31" viewBox="0 0 32 31" fill="none" xmlns="http://www.w3.org/2000/svg">
<path fill-rule="evenodd" clip-rule="evenodd" d="M1.65295 0H31.9638V30.3109H1.65295V0Z" fill="white"/>
<path fill-rule="evenodd" clip-rule="evenodd" d="M0.803696 29.9623H0.703371C0.703371 29.9122 0.678244 29.8368 0.678244 29.8115C0.678244 29.7865 0.678244 29.7365 0.602863 29.7365H0.452102V29.9623H0.376721V29.4349H0.602863C0.703371 29.4349 0.778569 29.4603 0.778569 29.5604C0.778569 29.6358 0.753442 29.6611 0.728498 29.6859C0.753625 29.7112 0.778569 29.7363 0.778569 29.7865V29.8869C0.778569 29.9122 0.778569 29.9122 0.803696 29.9122V29.9623ZM0.703371 29.5857C0.703371 29.5103 0.653117 29.5103 0.62799 29.5103H0.452102V29.6611H0.602863C0.653117 29.6611 0.703371 29.6358 0.703371 29.5857ZM1.13035 29.686C1.13035 29.3849 0.879259 29.1334 0.552609 29.1334C0.251269 29.1334 0 29.3849 0 29.686C0 30.0125 0.251269 30.264 0.552609 30.264C0.879077 30.2638 1.13035 30.0125 1.13035 29.686ZM1.05497 29.686C1.05497 29.9624 0.829005 30.1633 0.552609 30.1633C0.276214 30.1633 0.0753807 29.9623 0.0753807 29.686C0.0753807 29.435 0.276396 29.2088 0.552609 29.2088C0.828823 29.2088 1.05497 29.435 1.05497 29.686ZM32 19.5386C32 20.2922 31.5228 20.6435 30.6686 20.6435H29.0363V19.8898H30.6686C30.8194 19.8898 30.945 19.8649 30.9955 19.8148C31.0455 19.7644 31.0958 19.689 31.0958 19.5887C31.0958 19.488 31.0457 19.3877 30.9955 19.3376C30.945 19.2871 30.8447 19.2622 30.6939 19.2622C29.9156 19.2369 28.9358 19.2871 28.9358 18.1821C28.9358 17.6796 29.2623 17.127 30.1413 17.127H31.8241V17.8806H30.2668C30.1164 17.8806 30.0157 17.8806 29.9403 17.9307C29.8649 18.006 29.8149 18.0814 29.8149 18.2071C29.8149 18.3327 29.8903 18.4081 29.9906 18.4585C30.0913 18.4835 30.1918 18.5086 30.3174 18.5086H30.7693C31.2466 18.5086 31.5481 18.6089 31.7491 18.785C31.8995 18.9607 32 19.187 32 19.5386ZM28.4584 18.785C28.2574 18.6089 27.9558 18.5086 27.4786 18.5086H27.0267C26.9012 18.5086 26.8006 18.4833 26.7002 18.4585C26.5995 18.4081 26.5245 18.3327 26.5245 18.2071C26.5245 18.0814 26.5495 18.006 26.65 17.9307C26.7254 17.8806 26.8257 17.8806 26.9764 17.8806H28.5338V17.127H26.851C25.9466 17.127 25.6451 17.6796 25.6451 18.1821C25.6451 19.287 26.6249 19.2369 27.4036 19.2622C27.554 19.2622 27.6547 19.2871 27.7048 19.3376C27.7548 19.3877 27.8055 19.488 27.8055 19.5887C27.8055 19.689 27.755 19.7644 27.7048 19.8148C27.6294 19.8649 27.5291 19.8898 27.3783 19.8898H25.7456V20.6435H27.3783C28.2321 20.6435 28.7095 20.292 28.7095 19.5386C28.7095 19.187 28.6091 18.9607 28.4584 18.785ZM25.2432 19.9153H23.2593V19.212H25.1932V18.5089H23.2593V17.8556H25.2432V17.1273H22.4303V20.6436H25.2432V19.9153ZM21.5259 17.3032C21.2495 17.1525 20.923 17.1271 20.4961 17.1271H18.5622V20.6435H19.416V19.3625H20.3204C20.6215 19.3625 20.7976 19.3878 20.9232 19.5133C21.074 19.689 21.074 19.9905 21.074 20.2167V20.6435H21.9026V19.9652C21.9026 19.6387 21.8777 19.488 21.7772 19.3123C21.7018 19.2116 21.5514 19.0861 21.3504 19.0108C21.5762 18.9357 21.9533 18.6342 21.9533 18.0814C21.9531 17.6798 21.8023 17.4536 21.5259 17.3032ZM16.7536 17.1271H14.066L12.9859 18.2826L11.956 17.1271H8.56517V20.6435H11.906L12.986 19.488L14.0159 20.6435H15.6486V19.4632H16.7036C17.4319 19.4632 18.1605 19.2622 18.1605 18.2826C18.1604 17.3282 17.4067 17.1271 16.7536 17.1271ZM20.8477 18.5841C20.7222 18.6342 20.5966 18.6342 20.4458 18.6342L19.416 18.6595V17.8555H20.4458C20.5966 17.8555 20.7473 17.8555 20.8477 17.9308C20.9484 17.9813 21.0234 18.0816 21.0234 18.2324C21.0234 18.3831 20.9484 18.5088 20.8477 18.5841ZM16.7536 18.7598H15.6484V17.8555H16.7536C17.0551 17.8555 17.256 17.9813 17.256 18.2826C17.256 18.5841 17.055 18.7598 16.7536 18.7598ZM13.5134 18.8853L14.8194 17.5041V20.3423L13.5134 18.8853ZM11.4788 19.9153H9.394V19.212H11.2527V18.5089H9.394V17.8556H11.5039L12.4333 18.8855L11.4788 19.9153ZM29.6639 14.5902H28.4584L26.8759 11.9528V14.5902H25.1682L24.8414 13.8115H23.0832L22.7568 14.5902H21.777C21.3752 14.5902 20.8477 14.4897 20.5465 14.1882C20.2701 13.8869 20.1194 13.485 20.1194 12.857C20.1194 12.3296 20.1947 11.8523 20.5713 11.4756C20.8224 11.1992 21.2746 11.0738 21.8522 11.0738H22.6559V11.8274H21.8522C21.551 11.8274 21.375 11.8776 21.1993 12.0284C21.0485 12.1792 20.9731 12.4554 20.9731 12.8321C20.9731 13.2088 21.0485 13.4852 21.1993 13.6611C21.3247 13.7865 21.551 13.8368 21.7768 13.8368H22.1537L23.3593 11.0739H24.6152L26.0218 14.3894V11.0738H27.328L28.81 13.5102V11.0738H29.6637V14.5902H29.6639ZM19.6924 11.0738H18.8386V14.5902H19.6924V11.0738ZM17.9089 11.2245C17.6325 11.0738 17.3314 11.0738 16.9044 11.0738H14.9702V14.5902H15.799V13.3091H16.7032C17.0047 13.3091 17.2057 13.3343 17.3312 13.4599C17.4819 13.6358 17.4566 13.9373 17.4566 14.1381V14.5902H18.3104V13.8869C18.3104 13.5855 18.2855 13.4348 18.16 13.2589C18.0846 13.1584 17.9339 13.0327 17.7582 12.9575C17.9839 12.857 18.361 12.5808 18.361 12.0282C18.3612 11.6264 18.1851 11.4002 17.9089 11.2245ZM14.3673 13.8619H12.4081V13.1586H14.3422V12.4302H12.4081V11.8023H14.3673V11.0739H11.5542V14.5904H14.3673V13.8619ZM10.9262 11.0738H9.54476L8.51492 13.4599L7.4097 11.0738H6.0534V14.3892L4.62171 11.0738H3.36591L1.85884 14.5902H2.76305L3.08951 13.8115H4.84767L5.17414 14.5902H6.88222V11.8274L8.11289 14.5902H8.8412L10.0721 11.8274V14.5902H10.926V11.0738H10.9262ZM24.5402 13.0581L23.9623 11.6766L23.3848 13.0581H24.5402ZM17.256 12.5056C17.1305 12.581 17.0049 12.581 16.829 12.581H15.799V11.8024H16.8288C16.9796 11.8024 17.1551 11.8024 17.2558 11.8527C17.3561 11.9281 17.4066 12.0286 17.4066 12.1792C17.4066 12.3297 17.3563 12.4552 17.256 12.5056ZM3.39086 13.0581L3.96859 11.6766L4.54633 13.0581H3.39086ZM31.7992 0.0470581H1.83353V12.7065L2.86337 10.3706H5.0485L5.35002 10.9483V10.3706H7.91206L8.48979 11.6264L9.0424 10.3706H17.2057C17.5823 10.3706 17.9087 10.4459 18.1602 10.6468V10.3706H20.3956V10.6468C20.7721 10.4458 21.2493 10.3706 21.8021 10.3706H25.0422L25.3437 10.9483V10.3706H27.7299L28.0817 10.9483V10.3706H30.4174V15.2936H28.0565L27.6046 14.5402V15.2936H24.6657L24.3392 14.4899H23.6105L23.2841 15.2936H21.7521C21.1492 15.2936 20.6969 15.1429 20.3958 14.9923V15.2936H16.7536V14.1633C16.7536 14.0125 16.7285 13.9874 16.628 13.9874H16.5025V15.2934H9.46938V14.6654L9.21829 15.2934H7.73635L7.48526 14.6906V15.2934H4.64684L4.3455 14.4897H3.617L3.29053 15.2934H1.83353V30.1381H31.7992V21.1207C31.4727 21.2714 31.0204 21.3468 30.5683 21.3468H28.383V21.0453C28.1319 21.2465 27.6796 21.3468 27.2528 21.3468H20.3704V20.2167C20.3704 20.0659 20.3455 20.0659 20.2197 20.0659H20.0942V21.3468H17.8335V20.0156C17.457 20.1914 17.0298 20.1914 16.6531 20.1914H16.4018V21.3468H13.639L12.986 20.5932L12.2577 21.3468H7.81155V16.424H12.3328L12.9859 17.1772L13.6892 16.424H16.7285C17.0799 16.424 17.6578 16.474 17.9089 16.7251V16.424H20.6215C20.8979 16.424 21.4256 16.474 21.777 16.7251V16.424H25.8712V16.7253C26.0974 16.5243 26.5245 16.4241 26.9011 16.4241H29.1867V16.7253C29.4382 16.5496 29.7896 16.4241 30.2418 16.4241H31.7992V0.0470581Z" fill="#0077A6"/>
</svg>
