<svg width="56" height="15" viewBox="0 0 56 15" fill="none" xmlns="http://www.w3.org/2000/svg">
<path d="M10.7299 14.5136C14.6957 14.5326 18.3155 11.2786 18.3155 7.31988C18.3155 2.99084 14.6957 -0.00143932 10.7299 5.19397e-07H7.31677C3.3034 -0.00143932 0 2.99174 0 7.31988C0 11.2794 3.3034 14.5326 7.31677 14.5136H10.7299Z" fill="#0079BE"/>
<path d="M7.33437 0.599869C3.66706 0.601021 0.695322 3.5743 0.694458 7.24391C0.695322 10.9129 3.66703 13.8859 7.33437 13.887C11.0025 13.8859 13.9749 10.9129 13.9754 7.24391C13.9749 3.5743 11.0025 0.601021 7.33437 0.599869ZM3.12551 7.24391C3.12897 5.45073 4.24862 3.92162 5.82749 3.31397V11.1729C4.24862 10.5656 3.12894 9.03735 3.12551 7.24391ZM8.84068 11.1747V3.31371C10.4201 3.91989 11.5415 5.44987 11.5444 7.24391C11.5415 9.0385 10.4201 10.5673 8.84068 11.1747Z" fill="white"/>
<path d="M20.6438 3.12248C20.6438 2.43593 20.2859 2.48114 19.9427 2.47369V2.27528C20.2401 2.28996 20.545 2.28996 20.843 2.28996C21.1634 2.28996 21.5984 2.27528 22.1633 2.27528C24.1389 2.27528 25.2148 3.59532 25.2148 4.94702C25.2148 5.70294 24.7726 7.60324 22.0714 7.60324C21.6825 7.60324 21.3235 7.58824 20.965 7.58824C20.6218 7.58824 20.2859 7.59576 19.9427 7.60324V7.40512C20.4002 7.35902 20.6218 7.34378 20.6437 6.82458V3.12248H20.6438ZM21.3917 6.70276C21.3917 7.29051 21.8118 7.35905 22.1855 7.35905C23.834 7.35905 24.3753 6.11473 24.3753 4.97726C24.3753 3.55037 23.4594 2.52002 21.9871 2.52002C21.6739 2.52002 21.5299 2.54248 21.3918 2.55057L21.3917 6.70276ZM25.4825 7.40515H25.627C25.8404 7.40515 25.9933 7.40515 25.9933 7.15257V5.08441C25.9933 4.74896 25.8789 4.70228 25.5965 4.55052V4.42813C25.955 4.32043 26.3828 4.17644 26.4127 4.15341C26.4666 4.12288 26.5121 4.11482 26.5504 4.11482C26.5881 4.11482 26.6039 4.16089 26.6039 4.22223V7.15257C26.6039 7.40515 26.7718 7.40515 26.9854 7.40515H27.1149V7.60356C26.8552 7.60356 26.5881 7.58833 26.314 7.58833C26.0393 7.58833 25.7644 7.59581 25.4825 7.60356V7.40515H25.4825ZM26.2987 2.93959C26.1001 2.93959 25.925 2.75647 25.925 2.55803C25.925 2.36682 26.1081 2.19087 26.2987 2.19087C26.4965 2.19087 26.6727 2.35188 26.6727 2.55803C26.6727 2.76422 26.5043 2.93959 26.2987 2.93959ZM27.8398 5.12991C27.8398 4.8477 27.7554 4.77168 27.3976 4.62654V4.48172C27.7255 4.37488 28.0379 4.27553 28.4044 4.11485C28.4271 4.11485 28.4496 4.1304 28.4496 4.19116V4.68759C28.8852 4.37488 29.2592 4.11482 29.771 4.11482C30.4188 4.11482 30.6477 4.58821 30.6477 5.18344V7.1526C30.6477 7.40515 30.8155 7.40515 31.0294 7.40515H31.1668V7.60356C30.899 7.60356 30.6322 7.58833 30.3581 7.58833C30.0831 7.58833 29.8081 7.59581 29.5338 7.60356V7.40515H29.6708C29.885 7.40515 30.0368 7.40515 30.0368 7.1526V5.17624C30.0368 4.74055 29.771 4.52716 29.3354 4.52716C29.0916 4.52716 28.7023 4.7256 28.4495 4.89375V7.15254C28.4495 7.40512 28.6182 7.40512 28.8322 7.40512H28.9692V7.60353C28.7023 7.60353 28.4349 7.58827 28.1602 7.58827C27.8858 7.58827 27.6106 7.59579 27.3362 7.60353V7.40512H27.4738C27.6875 7.40512 27.8398 7.40512 27.8398 7.15254V5.12991H27.8398ZM31.7469 5.49675C31.7311 5.56561 31.7311 5.6799 31.7469 5.93965C31.7919 6.66446 32.2585 7.25973 32.868 7.25973C33.288 7.25973 33.6168 7.03079 33.8987 6.74858L34.0052 6.85571C33.654 7.32106 33.2192 7.71785 32.5939 7.71785C31.3804 7.71785 31.1362 6.54208 31.1362 6.054C31.1362 4.55769 32.1433 4.11479 32.6771 4.11479C33.2955 4.11479 33.9597 4.50387 33.9669 5.31303C33.9669 5.35939 33.9669 5.4046 33.9597 5.45097L33.8906 5.49675H31.7469ZM33.0978 5.2523C33.288 5.2523 33.3105 5.15295 33.3105 5.06166C33.3105 4.6723 33.0741 4.35928 32.6466 4.35928C32.1816 4.35928 31.8612 4.70225 31.7696 5.2523H33.0978ZM34.1426 7.40515H34.3487C34.5617 7.40515 34.7143 7.40515 34.7143 7.15257V5.00807C34.7143 4.77165 34.4325 4.72557 34.3176 4.66452V4.55049C34.8747 4.31349 35.1802 4.11479 35.2495 4.11479C35.2947 4.11479 35.3172 4.13783 35.3172 4.21443V4.90123H35.3333C35.5236 4.60376 35.8447 4.11479 36.3096 4.11479C36.5005 4.11479 36.7444 4.24438 36.7444 4.51939C36.7444 4.72557 36.5998 4.9093 36.3862 4.9093C36.1487 4.9093 36.1487 4.72557 35.8821 4.72557C35.7523 4.72557 35.3253 4.90123 35.3253 5.35939V7.15257C35.3253 7.40512 35.4776 7.40512 35.6915 7.40512H36.1185V7.60356C35.6987 7.59576 35.3794 7.5883 35.0506 7.5883C34.738 7.5883 34.4172 7.59578 34.1426 7.60356V7.40515H34.1426ZM37.0803 6.54208C37.1797 7.04602 37.4846 7.47369 38.0419 7.47369C38.491 7.47369 38.6591 7.19896 38.6591 6.93173C38.6591 6.03096 36.9962 6.32095 36.9962 5.09219C36.9962 4.66455 37.3399 4.11482 38.1789 4.11482C38.4228 4.11482 38.7507 4.18393 39.0481 4.33684L39.1022 5.11468H38.9263C38.8503 4.63431 38.5834 4.35933 38.0946 4.35933C37.7894 4.35933 37.4998 4.53502 37.4998 4.86299C37.4998 5.75685 39.2698 5.48126 39.2698 6.6795C39.2698 7.18315 38.8652 7.71791 37.9572 7.71791C37.6521 7.71791 37.2936 7.61108 37.0267 7.45874L36.9427 6.58075L37.0803 6.54208ZM46.1596 3.65692H45.9693C45.8242 2.76422 45.1908 2.40512 44.3366 2.40512C43.4585 2.40512 42.1843 2.99255 42.1843 4.82435C42.1843 6.36728 43.2837 7.47363 44.4584 7.47363C45.2136 7.47363 45.8397 6.95471 45.9923 6.15303L46.1674 6.19853L45.9923 7.31294C45.6719 7.51193 44.8096 7.71785 44.3055 7.71785C42.5205 7.71785 41.3916 6.56514 41.3916 4.84767C41.3916 3.28285 42.7877 2.16035 44.283 2.16035C44.9009 2.16035 45.496 2.35962 46.0836 2.56581L46.1596 3.65692ZM46.4349 7.40515H46.5794C46.7933 7.40515 46.9465 7.40515 46.9465 7.15257V2.90161C46.9465 2.40515 46.8319 2.38986 46.5417 2.30606V2.18396C46.8469 2.08493 47.1673 1.94725 47.3277 1.85542C47.4109 1.80992 47.4725 1.7713 47.4949 1.7713C47.5416 1.7713 47.5568 1.81741 47.5568 1.87871V7.15257C47.5568 7.40515 47.7244 7.40515 47.9383 7.40515H48.067V7.60356C47.8087 7.60356 47.5416 7.5883 47.2666 7.5883C46.9923 7.5883 46.7176 7.59581 46.4348 7.60356V7.40515H46.4349ZM51.334 7.18313C51.334 7.32106 51.4175 7.32855 51.5471 7.32855C51.6389 7.32855 51.7529 7.32106 51.8525 7.32106V7.48175C51.5241 7.51199 50.8984 7.67238 50.7533 7.71788L50.715 7.69482V7.07715C50.2578 7.45091 49.9063 7.71788 49.3642 7.71788C48.9522 7.71788 48.525 7.45091 48.525 6.81018V4.85545C48.525 4.65704 48.4947 4.46608 48.0681 4.4281V4.28296C48.343 4.27548 48.9522 4.22966 49.0518 4.22966C49.1365 4.22966 49.1365 4.28296 49.1365 4.45085V6.41966C49.1365 6.6492 49.1365 7.30545 49.7998 7.30545C50.0592 7.30545 50.4024 7.10704 50.7225 6.84067V4.7863C50.7225 4.63426 50.3566 4.55046 50.0825 4.47383V4.33647C50.7683 4.29039 51.1964 4.22963 51.2721 4.22963C51.334 4.22963 51.334 4.28291 51.334 4.36728V7.18313H51.334ZM52.8522 4.66455C53.1571 4.40506 53.5691 4.11482 53.9891 4.11482C54.8744 4.11482 55.4079 4.88658 55.4079 5.71791C55.4079 6.71777 54.6758 7.71785 53.584 7.71785C53.0197 7.71785 52.7223 7.53442 52.5237 7.45088L52.2951 7.62596L52.1353 7.54248C52.203 7.0921 52.2418 6.6492 52.2418 6.18385V2.90158C52.2418 2.40515 52.1267 2.38986 51.837 2.30606V2.18396C52.1431 2.08493 52.4626 1.94725 52.623 1.85539C52.7071 1.80989 52.7678 1.7713 52.7914 1.7713C52.8369 1.7713 52.8522 1.81741 52.8522 1.87871V4.66452H52.8522V4.66455ZM52.8522 6.74052C52.8522 7.03079 53.1266 7.51976 53.6379 7.51976C54.4544 7.51976 54.7975 6.71777 54.7975 6.03819C54.7975 5.21402 54.1725 4.52722 53.5772 4.52722C53.2941 4.52722 53.058 4.71066 52.8522 4.88658V6.74052H52.8522ZM19.934 12.0414H19.9924C20.1415 12.0414 20.2993 12.0213 20.2993 11.805V9.6291C20.2993 9.41252 20.1415 9.3921 19.9924 9.3921H19.934V9.26741C20.096 9.26741 20.3451 9.28383 20.5492 9.28383C20.7565 9.28383 21.0052 9.26741 21.2004 9.26741V9.3921H21.142C20.9932 9.3921 20.8351 9.41255 20.8351 9.6291V11.805C20.8351 12.0213 20.9932 12.0414 21.142 12.0414H21.2004V12.1667C21.0012 12.1667 20.7516 12.1503 20.5446 12.1503C20.3411 12.1503 20.096 12.1667 19.934 12.1667V12.0414Z" fill="#211E1F"/>
<path d="M21.2003 12.1843C20.9997 12.1843 20.7509 12.1676 20.5442 12.1676C20.3412 12.1676 20.0971 12.1843 19.9338 12.1843H19.916V12.0236H19.992C20.1426 12.0201 20.2796 12.008 20.2811 11.805V9.62911C20.2796 9.42609 20.1426 9.41253 19.992 9.40968H19.916V9.24899H19.9338C20.0971 9.24899 20.3459 9.26541 20.5488 9.26541C20.7555 9.26541 21.004 9.24899 21.2003 9.24899H21.2188V9.40968H21.1422C20.9916 9.41256 20.8537 9.42609 20.8528 9.62911V11.805C20.8537 12.008 20.9916 12.0201 21.1422 12.0236H21.2187V12.1843H21.2003ZM21.1825 12.1488V12.0601H21.1422C20.9939 12.0601 20.8174 12.0345 20.8165 11.805V9.62911C20.8174 9.3996 20.9939 9.37368 21.1422 9.37368H21.1825V9.28557C20.9907 9.28557 20.7503 9.30169 20.5488 9.30169C20.3516 9.30169 20.1129 9.28672 19.9523 9.28557V9.37368H19.992C20.14 9.37368 20.317 9.3996 20.317 9.62911V11.805C20.317 12.0345 20.14 12.0601 19.992 12.0601H19.9523V12.1488C20.1129 12.1471 20.3475 12.1321 20.5442 12.1321C20.7463 12.1321 20.9867 12.1477 21.1825 12.1488ZM24.0526 11.348L24.0609 11.3399V9.7826C24.0609 9.44164 23.824 9.39211 23.6996 9.39211H23.608V9.26739C23.8035 9.26739 23.9944 9.28381 24.1893 9.28381C24.3594 9.28381 24.5305 9.26739 24.7003 9.26739V9.39211H24.6381C24.4634 9.39211 24.2682 9.4252 24.2682 9.91938V11.8096C24.2682 11.9548 24.2725 12.0999 24.2929 12.2286H24.1349L21.9972 9.84454V11.5559C21.9972 11.9173 22.0672 12.0414 22.3873 12.0414H22.4575V12.1667C22.2794 12.1667 22.1011 12.1503 21.9223 12.1503C21.736 12.1503 21.5449 12.1667 21.3578 12.1667V12.0414H21.4159C21.7024 12.0414 21.7894 11.8467 21.7894 11.5148V9.76535C21.7894 9.53296 21.5979 9.39214 21.4119 9.39214H21.3578V9.26745C21.5155 9.26745 21.6774 9.28384 21.8349 9.28384C21.9595 9.28384 22.0802 9.26745 22.2045 9.26745L24.0526 11.348Z" fill="#211E1F"/>
<path d="M24.2933 12.2468L24.122 12.2404L22.0151 9.89145V11.5559C22.02 11.917 22.075 12.0196 22.3876 12.0236H22.4766V12.1843H22.4582C22.2785 12.1843 22.0997 12.1676 21.9226 12.1676C21.7366 12.1676 21.5461 12.1843 21.3578 12.1843H21.3396V12.0236H21.4162C21.6906 12.0221 21.7689 11.8459 21.7721 11.5147V9.76561C21.7715 9.54445 21.5901 9.41026 21.4122 9.40968H21.3396V9.24957H21.3577C21.5164 9.24957 21.679 9.26541 21.8348 9.26541C21.9583 9.26541 22.0787 9.24957 22.2186 9.25562L24.0433 11.3103V9.78292C24.041 9.45233 23.8208 9.41259 23.6998 9.40968H23.5898V9.24957H23.6083C23.8044 9.24957 23.9955 9.26541 24.1895 9.26541C24.3585 9.26541 24.5287 9.24957 24.7003 9.24957H24.7184V9.40965H24.6384C24.4671 9.41458 24.2912 9.42952 24.2863 9.91936V11.8093C24.2863 11.9544 24.2906 12.0996 24.3108 12.2254L24.3148 12.2467H24.2933V12.2468ZM24.1355 12.2102H24.2728C24.2542 12.0855 24.251 11.9472 24.251 11.8093V9.91936C24.251 9.42088 24.4597 9.37368 24.6385 9.37368H24.6822V9.28554C24.5187 9.28669 24.3546 9.30166 24.1897 9.30166C23.9996 9.30166 23.8148 9.28669 23.6268 9.28554L23.6265 9.37368H23.6999C23.8275 9.37368 24.0794 9.43067 24.0794 9.78289L24.0736 11.3523L24.0653 11.361L24.0512 11.3739L22.2049 9.28554C22.0817 9.28554 21.9613 9.30166 21.8349 9.30166C21.6826 9.30166 21.5269 9.28669 21.3763 9.28554L21.3754 9.37365H21.4123C21.6072 9.37365 21.8073 9.52253 21.8073 9.76558V11.5147C21.8073 11.8467 21.7149 12.0592 21.4163 12.0604L21.3763 12.0592V12.1488C21.5562 12.1471 21.7411 12.1321 21.9227 12.1321C22.096 12.1321 22.2685 12.1471 22.44 12.1488V12.0604H22.3877C22.0609 12.0592 21.9797 11.917 21.9794 11.5559V9.79781L24.1355 12.2102ZM24.0529 11.3477L24.0661 11.3356L24.0529 11.3477ZM24.0434 11.3397V11.3382L24.0399 11.3353L24.0434 11.3397ZM25.3222 9.47473C25.0104 9.47473 24.9986 9.54963 24.9365 9.85255H24.8118C24.8282 9.7365 24.8489 9.62044 24.8616 9.4995C24.8783 9.38316 24.8863 9.26737 24.8863 9.14702H24.9862C25.0196 9.27171 25.1233 9.26739 25.2359 9.26739H27.3776C27.4898 9.26739 27.5935 9.26336 27.6021 9.13841L27.7012 9.15511C27.685 9.26739 27.6683 9.37944 27.6557 9.49172C27.6482 9.60377 27.6482 9.71605 27.6482 9.82778L27.5232 9.87415C27.5146 9.72066 27.4939 9.47473 27.216 9.47473H26.5352V11.6846C26.5352 12.0048 26.6806 12.0414 26.8792 12.0414H26.9584V12.1667C26.7966 12.1667 26.5055 12.1503 26.2818 12.1503C26.0328 12.1503 25.7417 12.1667 25.5796 12.1667V12.0414H25.6588C25.8877 12.0414 26.0034 12.021 26.0034 11.6932V9.47473H25.3222Z" fill="#211E1F"/>
<path d="M26.9598 12.1843C26.7962 12.1843 26.5058 12.1676 26.2826 12.1676C26.0339 12.1676 25.7434 12.1843 25.5804 12.1843H25.5632V12.0236H25.6596C25.8885 12.0181 25.9806 12.0152 25.9858 11.6932V9.49291H25.3231V9.45631H26.0218V11.6932C26.0218 12.0264 25.8877 12.0601 25.6596 12.0604H25.5986V12.148C25.7624 12.1471 26.0417 12.1321 26.2827 12.1321C26.4992 12.1321 26.7767 12.1471 26.9408 12.148V12.0604H26.8801C26.6794 12.0601 26.5179 12.0109 26.5179 11.6846V9.45631H27.2169C27.4956 9.45746 27.5319 9.69446 27.5411 9.84852L27.6306 9.81541C27.6306 9.70713 27.6312 9.59856 27.6387 9.48914C27.6508 9.3823 27.666 9.27633 27.6816 9.17036L27.6182 9.1597C27.599 9.28065 27.4823 9.28669 27.3778 9.28554H25.2151C25.1175 9.28554 25.0107 9.28093 24.9735 9.16491H24.905C24.9046 9.27764 24.8964 9.3902 24.8805 9.50181C24.8684 9.61587 24.8494 9.72559 24.8339 9.8353H24.9229C24.9775 9.54587 25.0133 9.45199 25.323 9.45634V9.49291C25.0161 9.49838 25.0225 9.55021 24.9548 9.85719L24.9517 9.8713H24.7919L24.7942 9.8497C24.8109 9.73336 24.8319 9.61757 24.8443 9.49662C24.8615 9.38144 24.8696 9.26625 24.8696 9.14703V9.12889H25.0012L25.0041 9.14185C25.0326 9.24667 25.1094 9.24724 25.2151 9.24897H27.3778C27.4936 9.24724 27.5776 9.24551 27.5848 9.13692L27.5865 9.11734L27.6053 9.12137L27.7224 9.13983L27.7198 9.15797C27.7031 9.26913 27.6867 9.38144 27.6746 9.49288C27.6663 9.60346 27.6663 9.71577 27.6663 9.82779V9.84075L27.6548 9.84535L27.5077 9.89889L27.5065 9.8747C27.4956 9.71862 27.4792 9.49285 27.2169 9.49285H26.5541V11.6846C26.5579 11.9979 26.6822 12.0195 26.88 12.0235H26.9773V12.1842L26.9598 12.1843ZM27.8347 12.0414H27.8932C28.0424 12.0414 28.2004 12.0213 28.2004 11.805V9.62909C28.2004 9.41251 28.0424 9.39209 27.8932 9.39209H27.8347V9.2674C28.0875 9.2674 28.52 9.28382 28.868 9.28382C29.2175 9.28382 29.6485 9.2674 29.9306 9.2674C29.9238 9.44565 29.9275 9.72038 29.9399 9.90269L29.8146 9.93606C29.7948 9.66627 29.7449 9.45058 29.3088 9.45058H28.7321V10.5382H29.2256C29.4746 10.5382 29.5291 10.3974 29.5535 10.1725H29.6779C29.6699 10.3352 29.6655 10.4971 29.6655 10.6589C29.6655 10.817 29.6698 10.9745 29.6779 11.1323L29.5535 11.1571C29.5291 10.908 29.5164 10.7461 29.2296 10.7461H28.7322V11.7134C28.7322 11.9838 28.972 11.9838 29.238 11.9838C29.7363 11.9838 29.956 11.9501 30.0807 11.4773L30.197 11.5058C30.1426 11.7264 30.0931 11.9461 30.0562 12.1667C29.7902 12.1667 29.3126 12.1503 28.9394 12.1503C28.5652 12.1503 28.0715 12.1667 27.8347 12.1667V12.0414Z" fill="#211E1F"/>
<path d="M30.0558 12.1843C29.7892 12.1843 29.3119 12.1673 28.9391 12.1673C28.5651 12.1673 28.0716 12.1843 27.8347 12.1843H27.8171V12.0236H27.8929C28.0434 12.0213 28.1799 12.008 28.1819 11.805V9.6291C28.1799 9.42637 28.0434 9.41284 27.8929 9.40967H27.8171V9.24959H27.8347C28.088 9.24959 28.5199 9.26543 28.868 9.26543C29.2172 9.26543 29.6479 9.24959 29.9306 9.24959H29.9493L29.9484 9.26802C29.9455 9.33051 29.9444 9.4042 29.9444 9.48255C29.9444 9.62622 29.9484 9.78317 29.9568 9.90155L29.9574 9.91652L29.9436 9.92058L29.7976 9.9586L29.7968 9.93729C29.7723 9.66775 29.7363 9.47222 29.3088 9.46819H28.7494L28.7488 10.5196H29.2256C29.4646 10.5173 29.5074 10.3949 29.5357 10.1711L29.5371 10.1547H29.6963L29.696 10.1734C29.688 10.3352 29.6828 10.4971 29.6828 10.6589C29.6828 10.8161 29.688 10.9737 29.696 11.1318L29.6963 11.1465L29.6814 11.1499L29.5371 11.1787L29.5357 11.1591C29.5072 10.9057 29.5051 10.7669 29.2293 10.7638L28.7494 10.7634V11.7134C28.7497 11.9657 28.9673 11.9643 29.238 11.9657C29.7377 11.9628 29.9381 11.9387 30.0634 11.4721L30.0674 11.4554L30.085 11.4586L30.218 11.4928L30.214 11.5101C30.1604 11.7302 30.1106 11.9496 30.0734 12.1696L30.07 12.1843H30.0558ZM30.0406 12.148C30.0766 11.9386 30.124 11.7284 30.1751 11.5193L30.093 11.4986C29.9686 11.9634 29.7279 12.0048 29.2379 12.0017C28.9765 12.0017 28.7145 12.0017 28.7133 11.7134V10.728H29.2293C29.5192 10.7248 29.5489 10.8999 29.5693 11.1363L29.6591 11.1176C29.6512 10.9649 29.6472 10.8119 29.6473 10.6589C29.6473 10.5025 29.651 10.347 29.6591 10.1906H29.5693C29.5463 10.4069 29.4786 10.559 29.2256 10.5561H28.7134V9.43184H29.3088C29.7406 9.42894 29.8123 9.65185 29.8307 9.91304L29.9203 9.88885C29.9131 9.77165 29.9081 9.62133 29.9081 9.48253C29.9081 9.4114 29.9099 9.3443 29.9122 9.28556C29.6301 9.28671 29.2097 9.30168 28.868 9.30168C28.5268 9.30168 28.1068 9.28671 27.8526 9.28556V9.37367H27.8928C28.0408 9.37367 28.2176 9.39959 28.2182 9.6291V11.805C28.2176 12.034 28.0408 12.0593 27.8928 12.0605H27.8526V12.148C28.0947 12.1477 28.5744 12.1322 28.9391 12.1322C29.3053 12.1322 29.7728 12.1477 30.0406 12.148ZM30.7573 9.70743C30.7573 9.40449 30.5915 9.3921 30.4622 9.3921H30.3876V9.26713C30.5206 9.26713 30.7777 9.28383 31.0311 9.28383C31.2801 9.28383 31.4796 9.26713 31.6993 9.26713C32.2221 9.26713 32.6877 9.40852 32.6877 9.99885C32.6877 10.3718 32.4387 10.6004 32.1107 10.7297L32.8204 11.7923C32.9367 11.968 33.0193 12.0172 33.2232 12.0414V12.1667C33.0861 12.1667 32.9531 12.1503 32.8163 12.1503C32.6877 12.1503 32.5543 12.1667 32.4262 12.1667C32.1066 11.7471 31.832 11.2985 31.5622 10.8204H31.289V11.7097C31.289 12.0299 31.4379 12.0414 31.6287 12.0414H31.7036V12.1667C31.4664 12.1667 31.2266 12.1503 30.9896 12.1503C30.7901 12.1503 30.5949 12.1667 30.3876 12.1667V12.0414H30.4622C30.6165 12.0414 30.7573 11.9717 30.7573 11.8177V9.70743ZM31.289 10.671H31.4917C31.9071 10.671 32.1308 10.5132 32.1308 10.023C32.1308 9.65387 31.8945 9.41687 31.5245 9.41687C31.3999 9.41687 31.3469 9.42983 31.289 9.43357V10.671H31.289Z" fill="#211E1F"/>
<path d="M33.2231 12.1843C33.0841 12.1843 32.9519 12.1676 32.8155 12.1676C32.6888 12.1676 32.5563 12.1843 32.4116 12.1774C32.0931 11.7595 31.8202 11.3135 31.5519 10.8389H31.3066V11.7092C31.3109 12.0216 31.4364 12.019 31.6284 12.0236H31.7214V12.1843H31.703C31.4657 12.1843 31.2248 12.1676 30.989 12.1676C30.7906 12.1676 30.596 12.1843 30.3876 12.1843H30.3694V12.0236H30.4621C30.6118 12.0228 30.7379 11.9577 30.7385 11.8177V9.70751C30.7354 9.41263 30.5911 9.41433 30.4621 9.41004H30.3694V9.24907H30.3876C30.522 9.24907 30.7782 9.26545 31.031 9.26545C31.2789 9.26545 31.4784 9.24907 31.6996 9.24907C32.2227 9.25022 32.7046 9.39478 32.706 9.99779C32.706 10.373 32.4582 10.6071 32.1377 10.7379L32.8353 11.7826C32.9513 11.9548 33.0236 11.9977 33.2257 12.0236L33.2409 12.0259V12.1843H33.2231V12.1843ZM31.2885 10.8026H31.5723L31.5772 10.8118C31.8478 11.289 32.1204 11.737 32.4262 12.1488C32.5529 12.1488 32.6862 12.1318 32.8155 12.1318C32.9482 12.1318 33.076 12.1462 33.2053 12.1483V12.0573C33.0103 12.0331 32.9191 11.9749 32.8057 11.8024L32.0833 10.7211L32.1037 10.7127C32.4285 10.5849 32.6689 10.3628 32.6692 9.99767C32.6689 9.42145 32.2215 9.28786 31.6996 9.28555C31.4804 9.28555 31.2812 9.30197 31.031 9.30197C30.7872 9.30197 30.541 9.28671 30.4051 9.28555V9.37367H30.4621C30.5911 9.37399 30.7748 9.39527 30.7748 9.70746V11.8177C30.7748 11.9844 30.6184 12.0604 30.4621 12.0607H30.4051V12.1482C30.6049 12.1476 30.7941 12.1318 30.989 12.1318C31.2213 12.1318 31.4554 12.1477 31.6852 12.1482V12.0607H31.6284C31.439 12.0604 31.2703 12.0368 31.2703 11.7091V10.8026H31.2884H31.2885ZM31.2885 10.6885H31.2703V9.41687L31.2861 9.41543C31.3428 9.41114 31.399 9.3993 31.5245 9.3993C31.9028 9.3993 32.1487 9.64523 32.1492 10.0239C32.1481 10.5198 31.9103 10.6882 31.4917 10.6885H31.2885V10.6885ZM31.4917 10.6529C31.9028 10.6494 32.1095 10.5066 32.1138 10.0239C32.1115 9.66107 31.8861 9.43587 31.5245 9.43443C31.4122 9.43443 31.3595 9.4448 31.3065 9.44944V10.6529H31.4917ZM36.042 11.348L36.0495 11.3399V9.78259C36.0495 9.44163 35.8131 9.3921 35.6888 9.3921H35.5978V9.26738C35.7927 9.26738 35.9833 9.2838 36.1788 9.2838C36.3492 9.2838 36.5188 9.26738 36.6901 9.26738V9.3921H36.6276C36.4532 9.3921 36.2579 9.42519 36.2579 9.91937V11.8096C36.2579 11.9548 36.262 12.0999 36.2824 12.2286H36.125L33.987 9.84453V11.5559C33.987 11.9173 34.0575 12.0414 34.3771 12.0414H34.4476V12.1667C34.2694 12.1667 34.0906 12.1503 33.9124 12.1503C33.7249 12.1503 33.5341 12.1667 33.3475 12.1667V12.0414H33.4051C33.6919 12.0414 33.7791 11.8467 33.7791 11.5147V9.76534C33.7791 9.53295 33.5882 9.39213 33.4017 9.39213H33.3475V9.26744C33.5048 9.26744 33.6674 9.28383 33.8249 9.28383C33.9487 9.28383 34.0696 9.26744 34.1943 9.26744L36.042 11.348Z" fill="#211E1F"/>
<path d="M36.2824 12.2465L36.1115 12.2407L34.0043 9.89148V11.5557C34.0092 11.9171 34.0639 12.0195 34.3771 12.0236H34.465V12.1843H34.4468C34.2672 12.1843 34.0892 12.1673 33.9113 12.1673C33.7259 12.1673 33.5342 12.1843 33.3473 12.1843H33.3286V12.0236H33.4049C33.679 12.0225 33.7576 11.8459 33.7602 11.5136V9.76535C33.7599 9.54416 33.5788 9.41 33.4015 9.40968H33.3286V9.24902H33.3473C33.5057 9.24902 33.6681 9.26541 33.8247 9.26541C33.9467 9.26541 34.0671 9.24902 34.2064 9.25475L36.0315 11.3103V9.78231C36.0303 9.4523 35.8092 9.41141 35.6886 9.40971H35.5788V9.24902H35.597C35.7934 9.24902 35.9845 9.26541 36.1785 9.26541C36.3479 9.26541 36.518 9.24902 36.689 9.24902H36.7071V9.40971H36.6274C36.4561 9.41432 36.2796 9.42955 36.2753 9.91941V11.8093C36.2753 11.9545 36.279 12.0985 36.3 12.2263L36.3023 12.2465H36.2824ZM36.1247 12.2102H36.2612C36.243 12.0855 36.239 11.9473 36.239 11.8093V9.91939C36.2393 9.42088 36.4495 9.37483 36.6274 9.3734H36.6708V9.28556C36.5079 9.28672 36.3435 9.30169 36.1785 9.30169C35.988 9.30169 35.8028 9.28672 35.6148 9.28556V9.3734H35.6885C35.8163 9.37483 36.068 9.4307 36.068 9.78231L36.0623 11.3523L36.0542 11.361L36.0415 11.3742L34.1938 9.28559C34.0705 9.28559 33.9502 9.30172 33.8247 9.30172C33.671 9.30172 33.5158 9.28674 33.3646 9.28559V9.37342H33.4014C33.5964 9.37486 33.7965 9.52202 33.7965 9.76535V11.5136C33.7965 11.8471 33.7026 12.0593 33.4049 12.0604L33.3646 12.0602V12.148C33.544 12.1471 33.7291 12.1321 33.9114 12.1321C34.0856 12.1321 34.258 12.1471 34.4296 12.148V12.0604H34.3772C34.0501 12.0602 33.9684 11.9171 33.9678 11.5556V9.79844L36.1247 12.2102ZM36.0418 11.3477L36.0544 11.3359L36.0418 11.3477ZM36.0314 11.3399V11.3385L36.0282 11.3353L36.0314 11.3399ZM37.3576 11.5726C37.3156 11.7134 37.2655 11.8223 37.2655 11.8963C37.2655 12.0213 37.4402 12.0414 37.5767 12.0414H37.623V12.1667C37.4567 12.1577 37.287 12.1503 37.1198 12.1503C36.9704 12.1503 36.8218 12.1578 36.6721 12.1667V12.0414H36.6971C36.8589 12.0414 36.9963 11.9461 37.0576 11.7713L37.7226 9.86551C37.7762 9.71173 37.8516 9.5041 37.8767 9.35007C38.0089 9.30486 38.1753 9.22192 38.2539 9.17182C38.2668 9.16753 38.274 9.16318 38.287 9.16318C38.2994 9.16318 38.3074 9.16318 38.3166 9.17614C38.3287 9.20896 38.3408 9.24669 38.3541 9.2798L39.1178 11.4522C39.1676 11.5974 39.2168 11.7509 39.2707 11.8759C39.3208 11.9922 39.4083 12.0414 39.5457 12.0414H39.5701V12.1667C39.3833 12.1578 39.1962 12.1503 38.9975 12.1503C38.794 12.1503 38.5858 12.1578 38.3742 12.1667V12.0414H38.4203C38.5153 12.0414 38.6777 12.0253 38.6777 11.9214C38.6777 11.8675 38.6402 11.7555 38.5939 11.6222L38.4324 11.1404H37.4901L37.3576 11.5726ZM37.9633 9.73249H37.955L37.5689 10.908H38.3448L37.9633 9.73249Z" fill="#211E1F"/>
<path d="M39.5679 12.1843C39.3811 12.1759 39.1942 12.1672 38.9965 12.1672C38.7929 12.1672 38.5862 12.1759 38.3737 12.1843L38.355 12.1854V12.023H38.4189C38.5151 12.023 38.6579 12.0011 38.6579 11.9214C38.659 11.8741 38.6216 11.7601 38.5758 11.6279L38.4177 11.1583H37.502L37.373 11.5778C37.3309 11.7195 37.2812 11.8292 37.2814 11.8969C37.2828 11.9983 37.438 12.023 37.5756 12.023H37.6396V12.1854L37.6209 12.1843C37.4547 12.1759 37.2852 12.1672 37.1196 12.1672C36.9708 12.1672 36.8211 12.1759 36.6722 12.1843L36.653 12.1854V12.023H36.6959C36.8504 12.0224 36.9794 11.9346 37.0393 11.7656L37.7041 9.85952C37.7585 9.70545 37.8334 9.4984 37.8693 9.33282C37.9995 9.28876 38.1661 9.20525 38.2462 9.15457C38.2577 9.15082 38.2693 9.14506 38.2863 9.14506C38.2963 9.14478 38.3188 9.14737 38.332 9.16928C38.3438 9.20352 38.3568 9.24041 38.3694 9.2741L39.1341 11.4463C39.1831 11.592 39.2326 11.7455 39.2867 11.8681C39.3348 11.979 39.4111 12.0225 39.5447 12.0231H39.587V12.1855L39.5679 12.1843ZM38.3913 12.1471C38.5968 12.1399 38.7981 12.1319 38.9965 12.1319C39.1893 12.1319 39.3698 12.1399 39.5503 12.1471V12.0604H39.5446C39.4024 12.0613 39.3042 12.0054 39.2532 11.8831C39.1991 11.7569 39.1484 11.6029 39.0998 11.4574L38.3354 9.28556C38.3228 9.25245 38.3107 9.21472 38.2997 9.18535C38.2963 9.18132 38.2971 9.18132 38.2937 9.18132H38.2861C38.2775 9.18132 38.2726 9.18391 38.262 9.18679C38.182 9.23891 38.0153 9.32041 37.8923 9.35295C37.8667 9.51018 37.7921 9.71752 37.738 9.87129L37.0735 11.7777C37.0102 11.9579 36.8648 12.0607 36.6958 12.0604H36.6892V12.1471C36.8314 12.1399 36.9753 12.1319 37.1196 12.1319C37.2799 12.1319 37.4441 12.1399 37.6024 12.1471V12.0604H37.5756C37.4406 12.0587 37.2517 12.0434 37.2466 11.8968C37.2468 11.8139 37.2978 11.7077 37.3384 11.5674L37.3565 11.5729L37.3384 11.5668L37.4751 11.1228H38.4431L38.6097 11.6164C38.6564 11.7497 38.6941 11.8603 38.6941 11.9214C38.6884 12.0489 38.513 12.0578 38.4189 12.0604H38.3912V12.1471H38.3913ZM37.5425 10.9258L37.9401 9.71432H37.9626V9.73247L37.958 9.73333L37.9626 9.73247V9.71432H37.975L38.3691 10.9258H37.5425ZM37.5923 10.8898H38.319L37.9576 9.77681L37.5923 10.8898ZM37.9444 9.73768L37.9539 9.73451L37.9444 9.73768ZM39.7517 9.47473C39.4401 9.47473 39.4278 9.54963 39.3652 9.85255H39.2406C39.257 9.7365 39.278 9.62045 39.291 9.4995C39.3076 9.38316 39.3152 9.26737 39.3152 9.14702H39.4154C39.4485 9.27171 39.5527 9.26739 39.6641 9.26739H41.807C41.9184 9.26739 42.0221 9.26336 42.0307 9.13841L42.13 9.15511C42.1142 9.26739 42.0978 9.37944 42.0851 9.49172C42.0762 9.60377 42.0762 9.71605 42.0762 9.82778L41.9518 9.87415C41.944 9.72066 41.9233 9.47473 41.6449 9.47473H40.964V11.6846C40.964 12.0048 41.1097 12.0414 41.3084 12.0414H41.3872V12.1667C41.2254 12.1667 40.9352 12.1503 40.7106 12.1503C40.4619 12.1503 40.1708 12.1667 40.009 12.1667V12.0414H40.0876C40.3165 12.0414 40.4328 12.021 40.4328 11.6933V9.47473H39.7517Z" fill="#211E1F"/>
<path d="M41.3873 12.1843C41.2244 12.1843 40.9336 12.1676 40.7107 12.1676C40.4625 12.1676 40.1718 12.1843 40.0091 12.1843H39.9907V12.0236H40.0877C40.3165 12.0181 40.4084 12.0153 40.4142 11.6933L40.4136 9.49293H39.7517V9.45633H40.4502V11.6933C40.4502 12.0265 40.3157 12.0593 40.0877 12.0601H40.0267V12.1488C40.191 12.1471 40.4697 12.1321 40.7107 12.1321C40.9275 12.1321 41.2051 12.1471 41.3691 12.1488V12.0601H41.3078C41.1083 12.0593 40.9465 12.0112 40.946 11.6846V9.45633H41.645C41.9236 9.45748 41.9602 9.69448 41.968 9.84854L42.0587 9.81543C42.0587 9.70715 42.059 9.59858 42.067 9.48973C42.0785 9.38289 42.0941 9.27635 42.1094 9.17034L42.0466 9.15969C42.0276 9.28064 41.9104 9.28729 41.8071 9.28553H39.6432C39.5453 9.28668 39.4393 9.28092 39.4016 9.1643H39.3337C39.3325 9.27948 39.3247 9.39125 39.3083 9.50183C39.2974 9.61615 39.2769 9.72615 39.2614 9.8353H39.3504C39.4054 9.54586 39.4413 9.45198 39.7517 9.45633V9.4929C39.4439 9.49811 39.4508 9.5502 39.3828 9.85718L39.3797 9.87129H39.2196L39.2222 9.85053C39.2395 9.73335 39.2602 9.61756 39.2723 9.49748C39.2893 9.38143 39.2974 9.26624 39.2974 9.14702V9.12888H39.4286L39.4321 9.14184C39.4612 9.24666 39.5368 9.24723 39.6431 9.24896L39.6641 9.24954H41.807C41.9216 9.24726 42.0054 9.2455 42.0126 9.13726L42.0137 9.11739L42.0333 9.12145L42.1511 9.13988L42.1479 9.15802C42.1309 9.26918 42.1151 9.38148 42.1024 9.49293C42.0941 9.60351 42.0941 9.7161 42.0941 9.82784V9.84079L42.0823 9.8454L41.9352 9.89897L41.9343 9.87475C41.9236 9.7187 41.9072 9.4929 41.645 9.4929H40.9819V11.6846C40.9863 11.9979 41.1103 12.0195 41.3078 12.0236H41.4051V12.1843L41.3873 12.1843ZM42.2834 12.0414H42.3416C42.4916 12.0414 42.6484 12.0213 42.6484 11.805V9.62911C42.6484 9.41253 42.4916 9.39211 42.3416 9.39211H42.2834V9.26742C42.4455 9.26742 42.6943 9.28383 42.8972 9.28383C43.1057 9.28383 43.3547 9.26742 43.5499 9.26742V9.39211H43.4917C43.3423 9.39211 43.184 9.41256 43.184 9.62911V11.805C43.184 12.0213 43.3423 12.0414 43.4917 12.0414H43.5499V12.1667C43.3504 12.1667 43.1011 12.1503 42.8941 12.1503C42.6902 12.1503 42.4455 12.1667 42.2834 12.1667V12.0414Z" fill="#211E1F"/>
<path d="M43.5496 12.1843C43.349 12.1843 43.1005 12.1673 42.8935 12.1673C42.6905 12.1673 42.4452 12.1843 42.2831 12.1843H42.265V12.0236H42.3413C42.4913 12.0213 42.6289 12.0083 42.6295 11.805V9.62912C42.6289 9.42639 42.4913 9.41254 42.3413 9.40969H42.265V9.24961H42.2831C42.4452 9.24961 42.6946 9.26545 42.8969 9.26545C43.104 9.26545 43.353 9.24961 43.5496 9.24961H43.5672V9.40969H43.4915C43.3397 9.41257 43.2036 9.42639 43.2015 9.62912V11.805C43.2036 12.0083 43.3398 12.0213 43.4915 12.0236H43.5672V12.1843H43.5496ZM43.5309 12.148V12.0602H43.4915C43.3426 12.0602 43.1664 12.034 43.1664 11.805V9.62912C43.1664 9.39961 43.3426 9.37369 43.4915 9.37369H43.5309V9.28557C43.3392 9.28673 43.0994 9.3017 42.8969 9.3017C42.7003 9.3017 42.4622 9.28673 42.3013 9.28557V9.37369H42.3413C42.489 9.37369 42.6658 9.39961 42.6664 9.62912V11.805C42.6658 12.0339 42.489 12.0602 42.3413 12.0602H42.3013V12.148C42.4614 12.1463 42.6963 12.1321 42.8935 12.1321C43.0948 12.1321 43.3352 12.1471 43.5309 12.148H43.5309ZM45.2052 9.20523C46.0902 9.20523 46.7956 9.7541 46.7956 10.6385C46.7956 11.594 46.1106 12.2289 45.2268 12.2289C44.3458 12.2289 43.6739 11.6308 43.6739 10.7378C43.6739 9.87418 44.3418 9.20523 45.2052 9.20523ZM45.268 12.046C46.0735 12.046 46.2137 11.3353 46.2137 10.7297C46.2137 10.1227 45.8867 9.3878 45.1972 9.3878C44.4705 9.3878 44.2549 10.0357 44.2549 10.5918C44.2549 11.3353 44.5952 12.046 45.268 12.046Z" fill="#211E1F"/>
<path d="M43.6554 10.7378C43.6572 9.86409 44.3332 9.18822 45.2052 9.18707V9.22275C44.3519 9.22275 43.6914 9.88309 43.6906 10.7378C43.6926 11.6207 44.355 12.2099 45.2268 12.2101C46.102 12.2099 46.7772 11.5838 46.7786 10.6376C46.7777 9.76445 46.083 9.2239 45.2052 9.22275V9.18707C46.0971 9.18765 46.812 9.74199 46.8137 10.6376C46.8129 11.6031 46.119 12.2447 45.2268 12.2464C44.3389 12.2447 43.6572 11.6405 43.6555 10.7378H43.6554V10.7378ZM44.237 10.5918C44.2381 10.0332 44.4564 9.36907 45.1974 9.36907C45.9022 9.37083 46.2313 10.1195 46.2324 10.7297C46.2313 11.3353 46.0888 12.0633 45.2683 12.0633V12.0282C46.0577 12.0271 46.1945 11.3353 46.1964 10.7297C46.1964 10.1276 45.8722 9.40682 45.1974 9.40593C44.4852 9.40679 44.2744 10.0386 44.273 10.5918C44.2736 11.3316 44.6107 12.0264 45.2683 12.0282V12.0633C44.579 12.0624 44.2381 11.3397 44.237 10.5918ZM49.5936 11.348L49.6019 11.3399V9.78259C49.6019 9.44164 49.3647 9.39211 49.2401 9.39211H49.1502V9.26739C49.3448 9.26739 49.5357 9.2838 49.7303 9.2838C49.9011 9.2838 50.0712 9.26739 50.2416 9.26739V9.39211H50.1789C50.005 9.39211 49.8095 9.42519 49.8095 9.91938V11.8096C49.8095 11.9548 49.8136 12.0999 49.8346 12.2286H49.6771L47.5385 9.84453V11.5559C47.5385 11.9173 47.6088 12.0415 47.9283 12.0415H47.9994V12.1667C47.8207 12.1667 47.6425 12.1503 47.4639 12.1503C47.2771 12.1503 47.0856 12.1667 46.8988 12.1667V12.0415H46.9572C47.2443 12.0415 47.3304 11.8468 47.3304 11.5148V9.76534C47.3304 9.53295 47.1403 9.39214 46.9529 9.39214H46.8988V9.26745C47.0565 9.26745 47.2186 9.28383 47.3761 9.28383C47.5008 9.28383 47.6209 9.26745 47.7458 9.26745L49.5936 11.348Z" fill="#211E1F"/>
<path d="M49.8343 12.2464L49.6624 12.2404L47.5558 9.89145V11.5559C47.5604 11.917 47.6154 12.0193 47.9272 12.023H48.017V12.1843H47.9989C47.8189 12.1843 47.6407 12.1676 47.4634 12.1676C47.2771 12.1676 47.0865 12.1843 46.8979 12.1843H46.8806V12.023H46.9566C47.2304 12.0222 47.309 11.8459 47.3125 11.5147V9.76535C47.3119 9.54419 47.1308 9.40999 46.9523 9.40971H46.8806V9.2496H46.8979C47.0571 9.2496 47.2189 9.26546 47.3755 9.26546C47.4988 9.26546 47.6185 9.2496 47.759 9.25567L49.5832 11.3103V9.78294C49.582 9.45238 49.3609 9.41261 49.2394 9.40973H49.1303V9.24965H49.149C49.3445 9.24965 49.5359 9.26549 49.7291 9.26549C49.8995 9.26549 50.0688 9.24965 50.241 9.24965H50.2588V9.40973H50.1782C50.0075 9.41463 49.8307 9.43018 49.8273 9.91944V11.8094C49.8273 11.9545 49.8304 12.0993 49.8506 12.2263L49.854 12.2465H49.8343V12.2464ZM49.6765 12.2102H49.8124C49.7943 12.0855 49.7911 11.9472 49.7911 11.8093V9.91938C49.7911 9.42004 50.0004 9.37483 50.1784 9.37339H50.2232V9.28556C50.0595 9.28672 49.8954 9.30169 49.7293 9.30169C49.5404 9.30169 49.3546 9.28672 49.1667 9.28556V9.37339H49.2395C49.3682 9.37483 49.6187 9.43159 49.6187 9.78288L49.6141 11.3523L49.6063 11.361L49.5931 11.3742L47.7453 9.28559C47.623 9.28559 47.5017 9.30172 47.3757 9.30172C47.2228 9.30172 47.067 9.28674 46.9159 9.28559V9.37342H46.9524C47.1474 9.37486 47.348 9.52201 47.348 9.76535V11.5147C47.348 11.8468 47.2553 12.0593 46.9567 12.0604L46.9159 12.0601V12.148C47.0961 12.1471 47.2809 12.1321 47.4634 12.1321C47.6365 12.1321 47.8084 12.1471 47.9808 12.148V12.0604H47.9273C47.6014 12.0601 47.5199 11.917 47.5199 11.5559V9.79786L49.6765 12.2102ZM49.593 11.3477L49.6062 11.3359L49.593 11.3477ZM49.5832 11.3399V11.3385L49.5798 11.3353L49.5832 11.3399ZM50.9082 11.5726C50.8676 11.7134 50.8172 11.8223 50.8172 11.8963C50.8172 12.0213 50.992 12.0414 51.1282 12.0414H51.1745V12.1667C51.0084 12.1577 50.838 12.1503 50.6719 12.1503C50.5219 12.1503 50.373 12.1578 50.2242 12.1667V12.0414H50.2478C50.4104 12.0414 50.5481 11.9461 50.6094 11.7713L51.2745 9.8655C51.328 9.71173 51.4031 9.5041 51.4274 9.35007C51.5603 9.30486 51.7262 9.22192 51.8059 9.17182C51.8177 9.16753 51.8261 9.16318 51.8387 9.16318C51.8511 9.16318 51.8589 9.16318 51.8673 9.17614C51.8799 9.20896 51.8929 9.24669 51.9053 9.2798L52.6688 11.4522C52.7186 11.5974 52.7681 11.7509 52.8228 11.8758C52.8726 11.9922 52.9601 12.0414 53.0966 12.0414H53.122V12.1667C52.9348 12.1577 52.748 12.1503 52.5485 12.1503C52.3455 12.1503 52.1376 12.1578 51.9257 12.1667V12.0414H51.9718C52.0665 12.0414 52.2295 12.0253 52.2295 11.9213C52.2295 11.8675 52.1917 11.7555 52.1454 11.6221L51.9842 11.1404H51.0416L50.9082 11.5726ZM51.5151 9.73249H51.5068L51.1201 10.908H51.8971L51.5151 9.73249Z" fill="#211E1F"/>
<path d="M53.1206 12.1843C52.9337 12.1768 52.7472 12.1676 52.5489 12.1676C52.3464 12.1676 52.1386 12.1768 51.9267 12.1843L51.9083 12.1854V12.0236H51.9713C52.068 12.0236 52.2111 12.0011 52.2114 11.9214C52.2122 11.8741 52.1748 11.761 52.1285 11.6279L51.9707 11.1582H51.0544L50.9259 11.5778C50.8845 11.72 50.8349 11.8292 50.8358 11.8963C50.8358 11.9982 50.9912 12.0236 51.1286 12.0236H51.1919V12.1854L51.1735 12.1843C51.0074 12.1768 50.8375 12.1676 50.6723 12.1676C50.5235 12.1676 50.3743 12.1768 50.2246 12.1843L50.2064 12.1854V12.0236H50.2482C50.4031 12.023 50.5326 11.934 50.5931 11.7656L51.2576 9.8595C51.3106 9.70544 51.3854 9.49839 51.4222 9.33338C51.5527 9.28817 51.7193 9.20524 51.8 9.15452C51.8109 9.15078 51.8222 9.14589 51.8391 9.14589C51.8501 9.14473 51.8713 9.14732 51.8846 9.17007C51.897 9.20264 51.9091 9.24034 51.9229 9.27403L52.6864 11.4462C52.736 11.5919 52.7858 11.7454 52.8396 11.8689C52.8882 11.979 52.9639 12.0224 53.0964 12.0236H53.1396V12.1854L53.1206 12.1843ZM51.944 12.1477C52.1492 12.1399 52.3513 12.1318 52.5489 12.1318C52.742 12.1318 52.9231 12.1399 53.1039 12.1471L53.1033 12.0604H53.0964C52.9559 12.0607 52.8578 12.0054 52.8062 11.883C52.7515 11.7569 52.702 11.6028 52.6525 11.458L51.8883 9.28555C51.876 9.25243 51.8633 9.21471 51.8532 9.18649C51.8498 9.18131 51.8501 9.1813 51.8469 9.1813H51.8391C51.8305 9.1813 51.8258 9.18418 51.8158 9.18706C51.7349 9.23803 51.5685 9.32094 51.4456 9.35293C51.4199 9.51017 51.3445 9.71722 51.291 9.87128L50.6262 11.7776C50.5631 11.9579 50.4181 12.0607 50.2482 12.0604H50.2421V12.1471C50.3849 12.1399 50.5277 12.1318 50.6722 12.1318C50.8332 12.1318 50.997 12.1399 51.1568 12.1471V12.0604H51.1286C50.9936 12.0587 50.8041 12.044 50.7992 11.8963C50.8001 11.8139 50.8516 11.7082 50.8916 11.5674L50.9086 11.5729L50.8916 11.5668L51.0284 11.1228H51.9966L52.163 11.6163C52.2088 11.75 52.2465 11.8603 52.2465 11.9213C52.2404 12.0489 52.0663 12.0578 51.9712 12.0604H51.9439V12.1477H51.944ZM51.0958 10.9256L51.4939 9.71434H51.5155V9.73248L51.5112 9.73334L51.5155 9.73248V9.71434H51.5285L51.9209 10.9256H51.0958ZM51.1456 10.8898H51.8717L51.5106 9.7774L51.1456 10.8898ZM51.4983 9.73769L51.5066 9.73452L51.4983 9.73769ZM54.1685 11.7595C54.1685 11.9257 54.2837 11.9752 54.4167 11.9922C54.5869 12.0048 54.7737 12.0048 54.9655 11.9838C55.1393 11.9628 55.2891 11.8632 55.3633 11.7595C55.4295 11.6679 55.467 11.5516 55.492 11.4603H55.6124C55.5669 11.697 55.5087 11.9303 55.4586 12.1667C55.0941 12.1667 54.728 12.1503 54.3631 12.1503C53.9972 12.1503 53.6325 12.1667 53.2671 12.1667V12.0414H53.3241C53.4744 12.0414 53.6368 12.0213 53.6368 11.7635V9.6291C53.6368 9.41252 53.4744 9.3921 53.3241 9.3921H53.2671V9.26741C53.4865 9.26741 53.7027 9.28382 53.9224 9.28382C54.1348 9.28382 54.3422 9.26741 54.554 9.26741V9.3921H54.4495C54.2923 9.3921 54.1685 9.39671 54.1685 9.61614V11.7595Z" fill="#211E1F"/>
<path d="M55.4603 12.1843C55.0944 12.1843 54.7291 12.1676 54.3649 12.1676C53.9992 12.1676 53.6339 12.1843 53.268 12.1843H53.2504V12.0236H53.3258C53.4764 12.0202 53.6186 12.0098 53.6204 11.7636V9.62832C53.6186 9.42645 53.4772 9.41263 53.3258 9.40972H53.2504V9.24964H53.268C53.4888 9.24964 53.705 9.26548 53.9243 9.26548C54.1351 9.26548 54.3424 9.24964 54.5557 9.24964H54.5728V9.40972H54.4515C54.2906 9.41433 54.1904 9.40684 54.1872 9.61622V11.7596C54.1884 11.9142 54.2898 11.956 54.4193 11.9741C54.4927 11.9793 54.5696 11.9825 54.6496 11.9825C54.7512 11.9825 54.8569 11.9776 54.964 11.966C55.1333 11.9462 55.279 11.8486 55.3504 11.7495C55.4143 11.6608 55.4512 11.5468 55.4759 11.4561L55.4797 11.4423H55.636L55.6322 11.4641C55.5853 11.7017 55.5283 11.9338 55.4779 12.1702L55.4745 12.1844H55.4603V12.1843ZM55.4453 12.148C55.4934 11.9228 55.5479 11.7025 55.5925 11.4779H55.5072C55.4813 11.5683 55.4445 11.6798 55.3791 11.7705C55.3017 11.8782 55.1479 11.9795 54.968 12.0017C54.8592 12.0129 54.7515 12.0187 54.6496 12.0187C54.5693 12.0187 54.4913 12.0149 54.4161 12.0097C54.2811 11.9948 54.1501 11.9372 54.1507 11.7595V9.61617C54.1507 9.3855 54.2966 9.3737 54.4515 9.3737H54.5373V9.28558C54.3326 9.28673 54.1311 9.30196 53.9243 9.30196C53.7093 9.30196 53.4991 9.28673 53.286 9.28558V9.3737H53.3258C53.4741 9.3737 53.6554 9.39961 53.6554 9.62826V11.7635C53.6554 12.0322 53.4749 12.0602 53.3258 12.0602H53.286V12.148C53.6451 12.1477 54.0041 12.1321 54.3648 12.1321C54.7256 12.1321 55.0861 12.1477 55.4453 12.148ZM55.5637 9.14937C55.8138 9.14937 56.0007 9.34173 56.0007 9.58823C56.0007 9.83358 55.8139 10.0242 55.5637 10.0242C55.3135 10.0242 55.1263 9.83358 55.1263 9.58823C55.1263 9.34176 55.3134 9.14937 55.5637 9.14937ZM55.5637 9.94272C55.7591 9.94272 55.9094 9.7757 55.9094 9.58823C55.9094 9.39961 55.7614 9.23115 55.5637 9.23115C55.367 9.23115 55.2167 9.39964 55.2167 9.58823C55.2167 9.7757 55.367 9.94272 55.5637 9.94272ZM55.346 9.81861V9.79701C55.3998 9.78952 55.4096 9.79125 55.4096 9.75785V9.43417C55.4096 9.3887 55.4047 9.37315 55.348 9.37542V9.35325H55.5717C55.6489 9.35325 55.7194 9.38982 55.7194 9.4693C55.7194 9.53438 55.6762 9.58247 55.616 9.60119L55.6877 9.70138C55.7214 9.74687 55.7591 9.78952 55.7841 9.80447V9.81858H55.699C55.6581 9.81858 55.6224 9.73248 55.5417 9.617H55.4934V9.76243C55.4934 9.79122 55.5034 9.78949 55.5573 9.79698V9.81858H55.346V9.81861ZM55.4934 9.58823H55.5449C55.6013 9.58823 55.6278 9.54533 55.6278 9.4765C55.6278 9.40681 55.5869 9.38231 55.542 9.38231H55.4934V9.58823Z" fill="#211E1F"/>
<path d="M10.7299 14.5136C14.6957 14.5326 18.3155 11.2786 18.3155 7.31988C18.3155 2.99084 14.6957 -0.00143932 10.7299 5.19397e-07H7.31677C3.3034 -0.00143932 0 2.99174 0 7.31988C0 11.2794 3.3034 14.5326 7.31677 14.5136H10.7299Z" fill="#0079BE"/>
<path d="M7.33437 0.599869C3.66706 0.601021 0.695322 3.5743 0.694458 7.24391C0.695322 10.9129 3.66703 13.8859 7.33437 13.887C11.0025 13.8859 13.9749 10.9129 13.9754 7.24391C13.9749 3.5743 11.0025 0.601021 7.33437 0.599869ZM3.12551 7.24391C3.12897 5.45073 4.24862 3.92162 5.82749 3.31397V11.1729C4.24862 10.5656 3.12894 9.03735 3.12551 7.24391ZM8.84068 11.1747V3.31371C10.4201 3.91989 11.5415 5.44987 11.5444 7.24391C11.5415 9.0385 10.4201 10.5673 8.84068 11.1747Z" fill="white"/>
<path d="M20.6438 3.12248C20.6438 2.43593 20.2859 2.48114 19.9427 2.47369V2.27528C20.2401 2.28996 20.545 2.28996 20.843 2.28996C21.1634 2.28996 21.5984 2.27528 22.1633 2.27528C24.1389 2.27528 25.2148 3.59532 25.2148 4.94702C25.2148 5.70294 24.7726 7.60324 22.0714 7.60324C21.6825 7.60324 21.3235 7.58824 20.965 7.58824C20.6218 7.58824 20.2859 7.59576 19.9427 7.60324V7.40512C20.4002 7.35902 20.6218 7.34378 20.6437 6.82458V3.12248H20.6438ZM21.3917 6.70276C21.3917 7.29051 21.8118 7.35905 22.1855 7.35905C23.834 7.35905 24.3753 6.11473 24.3753 4.97726C24.3753 3.55037 23.4594 2.52002 21.9871 2.52002C21.6739 2.52002 21.5299 2.54248 21.3918 2.55057L21.3917 6.70276ZM25.4825 7.40515H25.627C25.8404 7.40515 25.9933 7.40515 25.9933 7.15257V5.08441C25.9933 4.74896 25.8789 4.70228 25.5965 4.55052V4.42813C25.955 4.32043 26.3828 4.17644 26.4127 4.15341C26.4666 4.12288 26.5121 4.11482 26.5504 4.11482C26.5881 4.11482 26.6039 4.16089 26.6039 4.22223V7.15257C26.6039 7.40515 26.7718 7.40515 26.9854 7.40515H27.1149V7.60356C26.8552 7.60356 26.5881 7.58833 26.314 7.58833C26.0393 7.58833 25.7644 7.59581 25.4825 7.60356V7.40515H25.4825ZM26.2987 2.93959C26.1001 2.93959 25.925 2.75647 25.925 2.55803C25.925 2.36682 26.1081 2.19087 26.2987 2.19087C26.4965 2.19087 26.6727 2.35188 26.6727 2.55803C26.6727 2.76422 26.5043 2.93959 26.2987 2.93959ZM27.8398 5.12991C27.8398 4.8477 27.7554 4.77168 27.3976 4.62654V4.48172C27.7255 4.37488 28.0379 4.27553 28.4044 4.11485C28.4271 4.11485 28.4496 4.1304 28.4496 4.19116V4.68759C28.8852 4.37488 29.2592 4.11482 29.771 4.11482C30.4188 4.11482 30.6477 4.58821 30.6477 5.18344V7.1526C30.6477 7.40515 30.8155 7.40515 31.0294 7.40515H31.1668V7.60356C30.899 7.60356 30.6322 7.58833 30.3581 7.58833C30.0831 7.58833 29.8081 7.59581 29.5338 7.60356V7.40515H29.6708C29.885 7.40515 30.0368 7.40515 30.0368 7.1526V5.17624C30.0368 4.74055 29.771 4.52716 29.3354 4.52716C29.0916 4.52716 28.7023 4.7256 28.4495 4.89375V7.15254C28.4495 7.40512 28.6182 7.40512 28.8322 7.40512H28.9692V7.60353C28.7023 7.60353 28.4349 7.58827 28.1602 7.58827C27.8858 7.58827 27.6106 7.59579 27.3362 7.60353V7.40512H27.4738C27.6875 7.40512 27.8398 7.40512 27.8398 7.15254V5.12991H27.8398ZM31.7469 5.49675C31.7311 5.56561 31.7311 5.6799 31.7469 5.93965C31.7919 6.66446 32.2585 7.25973 32.868 7.25973C33.288 7.25973 33.6168 7.03079 33.8987 6.74858L34.0052 6.85571C33.654 7.32106 33.2192 7.71785 32.5939 7.71785C31.3804 7.71785 31.1362 6.54208 31.1362 6.054C31.1362 4.55769 32.1433 4.11479 32.6771 4.11479C33.2955 4.11479 33.9597 4.50387 33.9669 5.31303C33.9669 5.35939 33.9669 5.4046 33.9597 5.45097L33.8906 5.49675H31.7469ZM33.0978 5.2523C33.288 5.2523 33.3105 5.15295 33.3105 5.06166C33.3105 4.6723 33.0741 4.35928 32.6466 4.35928C32.1816 4.35928 31.8612 4.70225 31.7696 5.2523H33.0978ZM34.1426 7.40515H34.3487C34.5617 7.40515 34.7143 7.40515 34.7143 7.15257V5.00807C34.7143 4.77165 34.4325 4.72557 34.3176 4.66452V4.55049C34.8747 4.31349 35.1802 4.11479 35.2495 4.11479C35.2947 4.11479 35.3172 4.13783 35.3172 4.21443V4.90123H35.3333C35.5236 4.60376 35.8447 4.11479 36.3096 4.11479C36.5005 4.11479 36.7444 4.24438 36.7444 4.51939C36.7444 4.72557 36.5998 4.9093 36.3862 4.9093C36.1487 4.9093 36.1487 4.72557 35.8821 4.72557C35.7523 4.72557 35.3253 4.90123 35.3253 5.35939V7.15257C35.3253 7.40512 35.4776 7.40512 35.6915 7.40512H36.1185V7.60356C35.6987 7.59576 35.3794 7.5883 35.0506 7.5883C34.738 7.5883 34.4172 7.59578 34.1426 7.60356V7.40515H34.1426ZM37.0803 6.54208C37.1797 7.04602 37.4846 7.47369 38.0419 7.47369C38.491 7.47369 38.6591 7.19896 38.6591 6.93173C38.6591 6.03096 36.9962 6.32095 36.9962 5.09219C36.9962 4.66455 37.3399 4.11482 38.1789 4.11482C38.4228 4.11482 38.7507 4.18393 39.0481 4.33684L39.1022 5.11468H38.9263C38.8503 4.63431 38.5834 4.35933 38.0946 4.35933C37.7894 4.35933 37.4998 4.53502 37.4998 4.86299C37.4998 5.75685 39.2698 5.48126 39.2698 6.6795C39.2698 7.18315 38.8652 7.71791 37.9572 7.71791C37.6521 7.71791 37.2936 7.61108 37.0267 7.45874L36.9427 6.58075L37.0803 6.54208ZM46.1596 3.65692H45.9693C45.8242 2.76422 45.1908 2.40512 44.3366 2.40512C43.4585 2.40512 42.1843 2.99255 42.1843 4.82435C42.1843 6.36728 43.2837 7.47363 44.4584 7.47363C45.2136 7.47363 45.8397 6.95471 45.9923 6.15303L46.1674 6.19853L45.9923 7.31294C45.6719 7.51193 44.8096 7.71785 44.3055 7.71785C42.5205 7.71785 41.3916 6.56514 41.3916 4.84767C41.3916 3.28285 42.7877 2.16035 44.283 2.16035C44.9009 2.16035 45.496 2.35962 46.0836 2.56581L46.1596 3.65692ZM46.4349 7.40515H46.5794C46.7933 7.40515 46.9465 7.40515 46.9465 7.15257V2.90161C46.9465 2.40515 46.8319 2.38986 46.5417 2.30606V2.18396C46.8469 2.08493 47.1673 1.94725 47.3277 1.85542C47.4109 1.80992 47.4725 1.7713 47.4949 1.7713C47.5416 1.7713 47.5568 1.81741 47.5568 1.87871V7.15257C47.5568 7.40515 47.7244 7.40515 47.9383 7.40515H48.067V7.60356C47.8087 7.60356 47.5416 7.5883 47.2666 7.5883C46.9923 7.5883 46.7176 7.59581 46.4348 7.60356V7.40515H46.4349ZM51.334 7.18313C51.334 7.32106 51.4175 7.32855 51.5471 7.32855C51.6389 7.32855 51.7529 7.32106 51.8525 7.32106V7.48175C51.5241 7.51199 50.8984 7.67238 50.7533 7.71788L50.715 7.69482V7.07715C50.2578 7.45091 49.9063 7.71788 49.3642 7.71788C48.9522 7.71788 48.525 7.45091 48.525 6.81018V4.85545C48.525 4.65704 48.4947 4.46608 48.0681 4.4281V4.28296C48.343 4.27548 48.9522 4.22966 49.0518 4.22966C49.1365 4.22966 49.1365 4.28296 49.1365 4.45085V6.41966C49.1365 6.6492 49.1365 7.30545 49.7998 7.30545C50.0592 7.30545 50.4024 7.10704 50.7225 6.84067V4.7863C50.7225 4.63426 50.3566 4.55046 50.0825 4.47383V4.33647C50.7683 4.29039 51.1964 4.22963 51.2721 4.22963C51.334 4.22963 51.334 4.28291 51.334 4.36728V7.18313H51.334ZM52.8522 4.66455C53.1571 4.40506 53.5691 4.11482 53.9891 4.11482C54.8744 4.11482 55.4079 4.88658 55.4079 5.71791C55.4079 6.71777 54.6758 7.71785 53.584 7.71785C53.0197 7.71785 52.7223 7.53442 52.5237 7.45088L52.2951 7.62596L52.1353 7.54248C52.203 7.0921 52.2418 6.6492 52.2418 6.18385V2.90158C52.2418 2.40515 52.1267 2.38986 51.837 2.30606V2.18396C52.1431 2.08493 52.4626 1.94725 52.623 1.85539C52.7071 1.80989 52.7678 1.7713 52.7914 1.7713C52.8369 1.7713 52.8522 1.81741 52.8522 1.87871V4.66452H52.8522V4.66455ZM52.8522 6.74052C52.8522 7.03079 53.1266 7.51976 53.6379 7.51976C54.4544 7.51976 54.7975 6.71777 54.7975 6.03819C54.7975 5.21402 54.1725 4.52722 53.5772 4.52722C53.2941 4.52722 53.058 4.71066 52.8522 4.88658V6.74052H52.8522ZM19.934 12.0414H19.9924C20.1415 12.0414 20.2993 12.0213 20.2993 11.805V9.6291C20.2993 9.41252 20.1415 9.3921 19.9924 9.3921H19.934V9.26741C20.096 9.26741 20.3451 9.28383 20.5492 9.28383C20.7565 9.28383 21.0052 9.26741 21.2004 9.26741V9.3921H21.142C20.9932 9.3921 20.8351 9.41255 20.8351 9.6291V11.805C20.8351 12.0213 20.9932 12.0414 21.142 12.0414H21.2004V12.1667C21.0012 12.1667 20.7516 12.1503 20.5446 12.1503C20.3411 12.1503 20.096 12.1667 19.934 12.1667V12.0414Z" fill="white"/>
<path d="M21.2003 12.1843C20.9997 12.1843 20.7509 12.1676 20.5442 12.1676C20.3412 12.1676 20.0971 12.1843 19.9338 12.1843H19.916V12.0236H19.992C20.1426 12.0201 20.2796 12.008 20.2811 11.805V9.62911C20.2796 9.42609 20.1426 9.41253 19.992 9.40968H19.916V9.24899H19.9338C20.0971 9.24899 20.3459 9.26541 20.5488 9.26541C20.7555 9.26541 21.004 9.24899 21.2003 9.24899H21.2188V9.40968H21.1422C20.9916 9.41256 20.8537 9.42609 20.8528 9.62911V11.805C20.8537 12.008 20.9916 12.0201 21.1422 12.0236H21.2187V12.1843H21.2003ZM21.1825 12.1488V12.0601H21.1422C20.9939 12.0601 20.8174 12.0345 20.8165 11.805V9.62911C20.8174 9.3996 20.9939 9.37368 21.1422 9.37368H21.1825V9.28557C20.9907 9.28557 20.7503 9.30169 20.5488 9.30169C20.3516 9.30169 20.1129 9.28672 19.9523 9.28557V9.37368H19.992C20.14 9.37368 20.317 9.3996 20.317 9.62911V11.805C20.317 12.0345 20.14 12.0601 19.992 12.0601H19.9523V12.1488C20.1129 12.1471 20.3475 12.1321 20.5442 12.1321C20.7463 12.1321 20.9867 12.1477 21.1825 12.1488ZM24.0526 11.348L24.0609 11.3399V9.7826C24.0609 9.44164 23.824 9.39211 23.6996 9.39211H23.608V9.26739C23.8035 9.26739 23.9944 9.28381 24.1893 9.28381C24.3594 9.28381 24.5305 9.26739 24.7003 9.26739V9.39211H24.6381C24.4634 9.39211 24.2682 9.4252 24.2682 9.91938V11.8096C24.2682 11.9548 24.2725 12.0999 24.2929 12.2286H24.1349L21.9972 9.84454V11.5559C21.9972 11.9173 22.0672 12.0414 22.3873 12.0414H22.4575V12.1667C22.2794 12.1667 22.1011 12.1503 21.9223 12.1503C21.736 12.1503 21.5449 12.1667 21.3578 12.1667V12.0414H21.4159C21.7024 12.0414 21.7894 11.8467 21.7894 11.5148V9.76535C21.7894 9.53296 21.5979 9.39214 21.4119 9.39214H21.3578V9.26745C21.5155 9.26745 21.6774 9.28384 21.8349 9.28384C21.9595 9.28384 22.0802 9.26745 22.2045 9.26745L24.0526 11.348Z" fill="white"/>
<path d="M24.2933 12.2468L24.122 12.2404L22.0151 9.89145V11.5559C22.02 11.917 22.075 12.0196 22.3876 12.0236H22.4766V12.1843H22.4582C22.2785 12.1843 22.0997 12.1676 21.9226 12.1676C21.7366 12.1676 21.5461 12.1843 21.3578 12.1843H21.3396V12.0236H21.4162C21.6906 12.0221 21.7689 11.8459 21.7721 11.5147V9.76561C21.7715 9.54445 21.5901 9.41026 21.4122 9.40968H21.3396V9.24957H21.3577C21.5164 9.24957 21.679 9.26541 21.8348 9.26541C21.9583 9.26541 22.0787 9.24957 22.2186 9.25562L24.0433 11.3103V9.78292C24.041 9.45233 23.8208 9.41259 23.6998 9.40968H23.5898V9.24957H23.6083C23.8044 9.24957 23.9955 9.26541 24.1895 9.26541C24.3585 9.26541 24.5287 9.24957 24.7003 9.24957H24.7184V9.40965H24.6384C24.4671 9.41458 24.2912 9.42952 24.2863 9.91936V11.8093C24.2863 11.9544 24.2906 12.0996 24.3108 12.2254L24.3148 12.2467H24.2933V12.2468ZM24.1355 12.2102H24.2728C24.2542 12.0855 24.251 11.9472 24.251 11.8093V9.91936C24.251 9.42088 24.4597 9.37368 24.6385 9.37368H24.6822V9.28554C24.5187 9.28669 24.3546 9.30166 24.1897 9.30166C23.9996 9.30166 23.8148 9.28669 23.6268 9.28554L23.6265 9.37368H23.6999C23.8275 9.37368 24.0794 9.43067 24.0794 9.78289L24.0736 11.3523L24.0653 11.361L24.0512 11.3739L22.2049 9.28554C22.0817 9.28554 21.9613 9.30166 21.8349 9.30166C21.6826 9.30166 21.5269 9.28669 21.3763 9.28554L21.3754 9.37365H21.4123C21.6072 9.37365 21.8073 9.52253 21.8073 9.76558V11.5147C21.8073 11.8467 21.7149 12.0592 21.4163 12.0604L21.3763 12.0592V12.1488C21.5562 12.1471 21.7411 12.1321 21.9227 12.1321C22.096 12.1321 22.2685 12.1471 22.44 12.1488V12.0604H22.3877C22.0609 12.0592 21.9797 11.917 21.9794 11.5559V9.79781L24.1355 12.2102ZM24.0529 11.3477L24.0661 11.3356L24.0529 11.3477ZM24.0434 11.3397V11.3382L24.0399 11.3353L24.0434 11.3397ZM25.3222 9.47473C25.0104 9.47473 24.9986 9.54963 24.9365 9.85255H24.8118C24.8282 9.7365 24.8489 9.62044 24.8616 9.4995C24.8783 9.38316 24.8863 9.26737 24.8863 9.14702H24.9862C25.0196 9.27171 25.1233 9.26739 25.2359 9.26739H27.3776C27.4898 9.26739 27.5935 9.26336 27.6021 9.13841L27.7012 9.15511C27.685 9.26739 27.6683 9.37944 27.6557 9.49172C27.6482 9.60377 27.6482 9.71605 27.6482 9.82778L27.5232 9.87415C27.5146 9.72066 27.4939 9.47473 27.216 9.47473H26.5352V11.6846C26.5352 12.0048 26.6806 12.0414 26.8792 12.0414H26.9584V12.1667C26.7966 12.1667 26.5055 12.1503 26.2818 12.1503C26.0328 12.1503 25.7417 12.1667 25.5796 12.1667V12.0414H25.6588C25.8877 12.0414 26.0034 12.021 26.0034 11.6932V9.47473H25.3222Z" fill="white"/>
<path d="M26.9598 12.1843C26.7962 12.1843 26.5058 12.1676 26.2826 12.1676C26.0339 12.1676 25.7434 12.1843 25.5804 12.1843H25.5632V12.0236H25.6596C25.8885 12.0181 25.9806 12.0152 25.9858 11.6932V9.49291H25.3231V9.45631H26.0218V11.6932C26.0218 12.0264 25.8877 12.0601 25.6596 12.0604H25.5986V12.148C25.7624 12.1471 26.0417 12.1321 26.2827 12.1321C26.4992 12.1321 26.7767 12.1471 26.9408 12.148V12.0604H26.8801C26.6794 12.0601 26.5179 12.0109 26.5179 11.6846V9.45631H27.2169C27.4956 9.45746 27.5319 9.69446 27.5411 9.84852L27.6306 9.81541C27.6306 9.70713 27.6312 9.59856 27.6387 9.48914C27.6508 9.3823 27.666 9.27633 27.6816 9.17036L27.6182 9.1597C27.599 9.28065 27.4823 9.28669 27.3778 9.28554H25.2151C25.1175 9.28554 25.0107 9.28093 24.9735 9.16491H24.905C24.9046 9.27764 24.8964 9.3902 24.8805 9.50181C24.8684 9.61587 24.8494 9.72559 24.8339 9.8353H24.9229C24.9775 9.54587 25.0133 9.45199 25.323 9.45634V9.49291C25.0161 9.49838 25.0225 9.55021 24.9548 9.85719L24.9517 9.8713H24.7919L24.7942 9.8497C24.8109 9.73336 24.8319 9.61757 24.8443 9.49662C24.8615 9.38144 24.8696 9.26625 24.8696 9.14703V9.12889H25.0012L25.0041 9.14185C25.0326 9.24667 25.1094 9.24724 25.2151 9.24897H27.3778C27.4936 9.24724 27.5776 9.24551 27.5848 9.13692L27.5865 9.11734L27.6053 9.12137L27.7224 9.13983L27.7198 9.15797C27.7031 9.26913 27.6867 9.38144 27.6746 9.49288C27.6663 9.60346 27.6663 9.71577 27.6663 9.82779V9.84075L27.6548 9.84535L27.5077 9.89889L27.5065 9.8747C27.4956 9.71862 27.4792 9.49285 27.2169 9.49285H26.5541V11.6846C26.5579 11.9979 26.6822 12.0195 26.88 12.0235H26.9773V12.1842L26.9598 12.1843ZM27.8347 12.0414H27.8932C28.0424 12.0414 28.2004 12.0213 28.2004 11.805V9.62909C28.2004 9.41251 28.0424 9.39209 27.8932 9.39209H27.8347V9.2674C28.0875 9.2674 28.52 9.28382 28.868 9.28382C29.2175 9.28382 29.6485 9.2674 29.9306 9.2674C29.9238 9.44565 29.9275 9.72038 29.9399 9.90269L29.8146 9.93606C29.7948 9.66627 29.7449 9.45058 29.3088 9.45058H28.7321V10.5382H29.2256C29.4746 10.5382 29.5291 10.3974 29.5535 10.1725H29.6779C29.6699 10.3352 29.6655 10.4971 29.6655 10.6589C29.6655 10.817 29.6698 10.9745 29.6779 11.1323L29.5535 11.1571C29.5291 10.908 29.5164 10.7461 29.2296 10.7461H28.7322V11.7134C28.7322 11.9838 28.972 11.9838 29.238 11.9838C29.7363 11.9838 29.956 11.9501 30.0807 11.4773L30.197 11.5058C30.1426 11.7264 30.0931 11.9461 30.0562 12.1667C29.7902 12.1667 29.3126 12.1503 28.9394 12.1503C28.5652 12.1503 28.0715 12.1667 27.8347 12.1667V12.0414Z" fill="white"/>
<path d="M30.0558 12.1843C29.7892 12.1843 29.3119 12.1673 28.9391 12.1673C28.5651 12.1673 28.0716 12.1843 27.8347 12.1843H27.8171V12.0236H27.8929C28.0434 12.0213 28.1799 12.008 28.1819 11.805V9.6291C28.1799 9.42637 28.0434 9.41284 27.8929 9.40967H27.8171V9.24959H27.8347C28.088 9.24959 28.5199 9.26543 28.868 9.26543C29.2172 9.26543 29.6479 9.24959 29.9306 9.24959H29.9493L29.9484 9.26802C29.9455 9.33051 29.9444 9.4042 29.9444 9.48255C29.9444 9.62622 29.9484 9.78317 29.9568 9.90155L29.9574 9.91652L29.9436 9.92058L29.7976 9.9586L29.7968 9.93729C29.7723 9.66775 29.7363 9.47222 29.3088 9.46819H28.7494L28.7488 10.5196H29.2256C29.4646 10.5173 29.5074 10.3949 29.5357 10.1711L29.5371 10.1547H29.6963L29.696 10.1734C29.688 10.3352 29.6828 10.4971 29.6828 10.6589C29.6828 10.8161 29.688 10.9737 29.696 11.1318L29.6963 11.1465L29.6814 11.1499L29.5371 11.1787L29.5357 11.1591C29.5072 10.9057 29.5051 10.7669 29.2293 10.7638L28.7494 10.7634V11.7134C28.7497 11.9657 28.9673 11.9643 29.238 11.9657C29.7377 11.9628 29.9381 11.9387 30.0634 11.4721L30.0674 11.4554L30.085 11.4586L30.218 11.4928L30.214 11.5101C30.1604 11.7302 30.1106 11.9496 30.0734 12.1696L30.07 12.1843H30.0558ZM30.0406 12.148C30.0766 11.9386 30.124 11.7284 30.1751 11.5193L30.093 11.4986C29.9686 11.9634 29.7279 12.0048 29.2379 12.0017C28.9765 12.0017 28.7145 12.0017 28.7133 11.7134V10.728H29.2293C29.5192 10.7248 29.5489 10.8999 29.5693 11.1363L29.6591 11.1176C29.6512 10.9649 29.6472 10.8119 29.6473 10.6589C29.6473 10.5025 29.651 10.347 29.6591 10.1906H29.5693C29.5463 10.4069 29.4786 10.559 29.2256 10.5561H28.7134V9.43184H29.3088C29.7406 9.42894 29.8123 9.65185 29.8307 9.91304L29.9203 9.88885C29.9131 9.77165 29.9081 9.62133 29.9081 9.48253C29.9081 9.4114 29.9099 9.3443 29.9122 9.28556C29.6301 9.28671 29.2097 9.30168 28.868 9.30168C28.5268 9.30168 28.1068 9.28671 27.8526 9.28556V9.37367H27.8928C28.0408 9.37367 28.2176 9.39959 28.2182 9.6291V11.805C28.2176 12.034 28.0408 12.0593 27.8928 12.0605H27.8526V12.148C28.0947 12.1477 28.5744 12.1322 28.9391 12.1322C29.3053 12.1322 29.7728 12.1477 30.0406 12.148ZM30.7573 9.70743C30.7573 9.40449 30.5915 9.3921 30.4622 9.3921H30.3876V9.26713C30.5206 9.26713 30.7777 9.28383 31.0311 9.28383C31.2801 9.28383 31.4796 9.26713 31.6993 9.26713C32.2221 9.26713 32.6877 9.40852 32.6877 9.99885C32.6877 10.3718 32.4387 10.6004 32.1107 10.7297L32.8204 11.7923C32.9367 11.968 33.0193 12.0172 33.2232 12.0414V12.1667C33.0861 12.1667 32.9531 12.1503 32.8163 12.1503C32.6877 12.1503 32.5543 12.1667 32.4262 12.1667C32.1066 11.7471 31.832 11.2985 31.5622 10.8204H31.289V11.7097C31.289 12.0299 31.4379 12.0414 31.6287 12.0414H31.7036V12.1667C31.4664 12.1667 31.2266 12.1503 30.9896 12.1503C30.7901 12.1503 30.5949 12.1667 30.3876 12.1667V12.0414H30.4622C30.6165 12.0414 30.7573 11.9717 30.7573 11.8177V9.70743ZM31.289 10.671H31.4917C31.9071 10.671 32.1308 10.5132 32.1308 10.023C32.1308 9.65387 31.8945 9.41687 31.5245 9.41687C31.3999 9.41687 31.3469 9.42983 31.289 9.43357V10.671H31.289Z" fill="white"/>
<path d="M33.2231 12.1843C33.0841 12.1843 32.9519 12.1676 32.8155 12.1676C32.6888 12.1676 32.5563 12.1843 32.4116 12.1774C32.0931 11.7595 31.8202 11.3135 31.5519 10.8389H31.3066V11.7092C31.3109 12.0216 31.4364 12.019 31.6284 12.0236H31.7214V12.1843H31.703C31.4657 12.1843 31.2248 12.1676 30.989 12.1676C30.7906 12.1676 30.596 12.1843 30.3876 12.1843H30.3694V12.0236H30.4621C30.6118 12.0228 30.7379 11.9577 30.7385 11.8177V9.70751C30.7354 9.41263 30.5911 9.41433 30.4621 9.41004H30.3694V9.24907H30.3876C30.522 9.24907 30.7782 9.26545 31.031 9.26545C31.2789 9.26545 31.4784 9.24907 31.6996 9.24907C32.2227 9.25022 32.7046 9.39478 32.706 9.99779C32.706 10.373 32.4582 10.6071 32.1377 10.7379L32.8353 11.7826C32.9513 11.9548 33.0236 11.9977 33.2257 12.0236L33.2409 12.0259V12.1843H33.2231V12.1843ZM31.2885 10.8026H31.5723L31.5772 10.8118C31.8478 11.289 32.1204 11.737 32.4262 12.1488C32.5529 12.1488 32.6862 12.1318 32.8155 12.1318C32.9482 12.1318 33.076 12.1462 33.2053 12.1483V12.0573C33.0103 12.0331 32.9191 11.9749 32.8057 11.8024L32.0833 10.7211L32.1037 10.7127C32.4285 10.5849 32.6689 10.3628 32.6692 9.99767C32.6689 9.42145 32.2215 9.28786 31.6996 9.28555C31.4804 9.28555 31.2812 9.30197 31.031 9.30197C30.7872 9.30197 30.541 9.28671 30.4051 9.28555V9.37367H30.4621C30.5911 9.37399 30.7748 9.39527 30.7748 9.70746V11.8177C30.7748 11.9844 30.6184 12.0604 30.4621 12.0607H30.4051V12.1482C30.6049 12.1476 30.7941 12.1318 30.989 12.1318C31.2213 12.1318 31.4554 12.1477 31.6852 12.1482V12.0607H31.6284C31.439 12.0604 31.2703 12.0368 31.2703 11.7091V10.8026H31.2884H31.2885ZM31.2885 10.6885H31.2703V9.41687L31.2861 9.41543C31.3428 9.41114 31.399 9.3993 31.5245 9.3993C31.9028 9.3993 32.1487 9.64523 32.1492 10.0239C32.1481 10.5198 31.9103 10.6882 31.4917 10.6885H31.2885V10.6885ZM31.4917 10.6529C31.9028 10.6494 32.1095 10.5066 32.1138 10.0239C32.1115 9.66107 31.8861 9.43587 31.5245 9.43443C31.4122 9.43443 31.3595 9.4448 31.3065 9.44944V10.6529H31.4917ZM36.042 11.348L36.0495 11.3399V9.78259C36.0495 9.44163 35.8131 9.3921 35.6888 9.3921H35.5978V9.26738C35.7927 9.26738 35.9833 9.2838 36.1788 9.2838C36.3492 9.2838 36.5188 9.26738 36.6901 9.26738V9.3921H36.6276C36.4532 9.3921 36.2579 9.42519 36.2579 9.91937V11.8096C36.2579 11.9548 36.262 12.0999 36.2824 12.2286H36.125L33.987 9.84453V11.5559C33.987 11.9173 34.0575 12.0414 34.3771 12.0414H34.4476V12.1667C34.2694 12.1667 34.0906 12.1503 33.9124 12.1503C33.7249 12.1503 33.5341 12.1667 33.3475 12.1667V12.0414H33.4051C33.6919 12.0414 33.7791 11.8467 33.7791 11.5147V9.76534C33.7791 9.53295 33.5882 9.39213 33.4017 9.39213H33.3475V9.26744C33.5048 9.26744 33.6674 9.28383 33.8249 9.28383C33.9487 9.28383 34.0696 9.26744 34.1943 9.26744L36.042 11.348Z" fill="white"/>
<path d="M36.2824 12.2465L36.1115 12.2407L34.0043 9.89148V11.5557C34.0092 11.9171 34.0639 12.0195 34.3771 12.0236H34.465V12.1843H34.4468C34.2672 12.1843 34.0892 12.1673 33.9113 12.1673C33.7259 12.1673 33.5342 12.1843 33.3473 12.1843H33.3286V12.0236H33.4049C33.679 12.0225 33.7576 11.8459 33.7602 11.5136V9.76535C33.7599 9.54416 33.5788 9.41 33.4015 9.40968H33.3286V9.24902H33.3473C33.5057 9.24902 33.6681 9.26541 33.8247 9.26541C33.9467 9.26541 34.0671 9.24902 34.2064 9.25475L36.0315 11.3103V9.78231C36.0303 9.4523 35.8092 9.41141 35.6886 9.40971H35.5788V9.24902H35.597C35.7934 9.24902 35.9845 9.26541 36.1785 9.26541C36.3479 9.26541 36.518 9.24902 36.689 9.24902H36.7071V9.40971H36.6274C36.4561 9.41432 36.2796 9.42955 36.2753 9.91941V11.8093C36.2753 11.9545 36.279 12.0985 36.3 12.2263L36.3023 12.2465H36.2824ZM36.1247 12.2102H36.2612C36.243 12.0855 36.239 11.9473 36.239 11.8093V9.91939C36.2393 9.42088 36.4495 9.37483 36.6274 9.3734H36.6708V9.28556C36.5079 9.28672 36.3435 9.30169 36.1785 9.30169C35.988 9.30169 35.8028 9.28672 35.6148 9.28556V9.3734H35.6885C35.8163 9.37483 36.068 9.4307 36.068 9.78231L36.0623 11.3523L36.0542 11.361L36.0415 11.3742L34.1938 9.28559C34.0705 9.28559 33.9502 9.30172 33.8247 9.30172C33.671 9.30172 33.5158 9.28674 33.3646 9.28559V9.37342H33.4014C33.5964 9.37486 33.7965 9.52202 33.7965 9.76535V11.5136C33.7965 11.8471 33.7026 12.0593 33.4049 12.0604L33.3646 12.0602V12.148C33.544 12.1471 33.7291 12.1321 33.9114 12.1321C34.0856 12.1321 34.258 12.1471 34.4296 12.148V12.0604H34.3772C34.0501 12.0602 33.9684 11.9171 33.9678 11.5556V9.79844L36.1247 12.2102ZM36.0418 11.3477L36.0544 11.3359L36.0418 11.3477ZM36.0314 11.3399V11.3385L36.0282 11.3353L36.0314 11.3399ZM37.3576 11.5726C37.3156 11.7134 37.2655 11.8223 37.2655 11.8963C37.2655 12.0213 37.4402 12.0414 37.5767 12.0414H37.623V12.1667C37.4567 12.1577 37.287 12.1503 37.1198 12.1503C36.9704 12.1503 36.8218 12.1578 36.6721 12.1667V12.0414H36.6971C36.8589 12.0414 36.9963 11.9461 37.0576 11.7713L37.7226 9.86551C37.7762 9.71173 37.8516 9.5041 37.8767 9.35007C38.0089 9.30486 38.1753 9.22192 38.2539 9.17182C38.2668 9.16753 38.274 9.16318 38.287 9.16318C38.2994 9.16318 38.3074 9.16318 38.3166 9.17614C38.3287 9.20896 38.3408 9.24669 38.3541 9.2798L39.1178 11.4522C39.1676 11.5974 39.2168 11.7509 39.2707 11.8759C39.3208 11.9922 39.4083 12.0414 39.5457 12.0414H39.5701V12.1667C39.3833 12.1578 39.1962 12.1503 38.9975 12.1503C38.794 12.1503 38.5858 12.1578 38.3742 12.1667V12.0414H38.4203C38.5153 12.0414 38.6777 12.0253 38.6777 11.9214C38.6777 11.8675 38.6402 11.7555 38.5939 11.6222L38.4324 11.1404H37.4901L37.3576 11.5726ZM37.9633 9.73249H37.955L37.5689 10.908H38.3448L37.9633 9.73249Z" fill="white"/>
<path d="M39.5679 12.1843C39.3811 12.1759 39.1942 12.1672 38.9965 12.1672C38.7929 12.1672 38.5862 12.1759 38.3737 12.1843L38.355 12.1854V12.023H38.4189C38.5151 12.023 38.6579 12.0011 38.6579 11.9214C38.659 11.8741 38.6216 11.7601 38.5758 11.6279L38.4177 11.1583H37.502L37.373 11.5778C37.3309 11.7195 37.2812 11.8292 37.2814 11.8969C37.2828 11.9983 37.438 12.023 37.5756 12.023H37.6396V12.1854L37.6209 12.1843C37.4547 12.1759 37.2852 12.1672 37.1196 12.1672C36.9708 12.1672 36.8211 12.1759 36.6722 12.1843L36.653 12.1854V12.023H36.6959C36.8504 12.0224 36.9794 11.9346 37.0393 11.7656L37.7041 9.85952C37.7585 9.70545 37.8334 9.4984 37.8693 9.33282C37.9995 9.28876 38.1661 9.20525 38.2462 9.15457C38.2577 9.15082 38.2693 9.14506 38.2863 9.14506C38.2963 9.14478 38.3188 9.14737 38.332 9.16928C38.3438 9.20352 38.3568 9.24041 38.3694 9.2741L39.1341 11.4463C39.1831 11.592 39.2326 11.7455 39.2867 11.8681C39.3348 11.979 39.4111 12.0225 39.5447 12.0231H39.587V12.1855L39.5679 12.1843ZM38.3913 12.1471C38.5968 12.1399 38.7981 12.1319 38.9965 12.1319C39.1893 12.1319 39.3698 12.1399 39.5503 12.1471V12.0604H39.5446C39.4024 12.0613 39.3042 12.0054 39.2532 11.8831C39.1991 11.7569 39.1484 11.6029 39.0998 11.4574L38.3354 9.28556C38.3228 9.25245 38.3107 9.21472 38.2997 9.18535C38.2963 9.18132 38.2971 9.18132 38.2937 9.18132H38.2861C38.2775 9.18132 38.2726 9.18391 38.262 9.18679C38.182 9.23891 38.0153 9.32041 37.8923 9.35295C37.8667 9.51018 37.7921 9.71752 37.738 9.87129L37.0735 11.7777C37.0102 11.9579 36.8648 12.0607 36.6958 12.0604H36.6892V12.1471C36.8314 12.1399 36.9753 12.1319 37.1196 12.1319C37.2799 12.1319 37.4441 12.1399 37.6024 12.1471V12.0604H37.5756C37.4406 12.0587 37.2517 12.0434 37.2466 11.8968C37.2468 11.8139 37.2978 11.7077 37.3384 11.5674L37.3565 11.5729L37.3384 11.5668L37.4751 11.1228H38.4431L38.6097 11.6164C38.6564 11.7497 38.6941 11.8603 38.6941 11.9214C38.6884 12.0489 38.513 12.0578 38.4189 12.0604H38.3912V12.1471H38.3913ZM37.5425 10.9258L37.9401 9.71432H37.9626V9.73247L37.958 9.73333L37.9626 9.73247V9.71432H37.975L38.3691 10.9258H37.5425ZM37.5923 10.8898H38.319L37.9576 9.77681L37.5923 10.8898ZM37.9444 9.73768L37.9539 9.73451L37.9444 9.73768ZM39.7517 9.47473C39.4401 9.47473 39.4278 9.54963 39.3652 9.85255H39.2406C39.257 9.7365 39.278 9.62045 39.291 9.4995C39.3076 9.38316 39.3152 9.26737 39.3152 9.14702H39.4154C39.4485 9.27171 39.5527 9.26739 39.6641 9.26739H41.807C41.9184 9.26739 42.0221 9.26336 42.0307 9.13841L42.13 9.15511C42.1142 9.26739 42.0978 9.37944 42.0851 9.49172C42.0762 9.60377 42.0762 9.71605 42.0762 9.82778L41.9518 9.87415C41.944 9.72066 41.9233 9.47473 41.6449 9.47473H40.964V11.6846C40.964 12.0048 41.1097 12.0414 41.3084 12.0414H41.3872V12.1667C41.2254 12.1667 40.9352 12.1503 40.7106 12.1503C40.4619 12.1503 40.1708 12.1667 40.009 12.1667V12.0414H40.0876C40.3165 12.0414 40.4328 12.021 40.4328 11.6933V9.47473H39.7517Z" fill="white"/>
<path d="M41.3873 12.1843C41.2244 12.1843 40.9336 12.1676 40.7107 12.1676C40.4625 12.1676 40.1718 12.1843 40.0091 12.1843H39.9907V12.0236H40.0877C40.3165 12.0181 40.4084 12.0153 40.4142 11.6933L40.4136 9.49293H39.7517V9.45633H40.4502V11.6933C40.4502 12.0265 40.3157 12.0593 40.0877 12.0601H40.0267V12.1488C40.191 12.1471 40.4697 12.1321 40.7107 12.1321C40.9275 12.1321 41.2051 12.1471 41.3691 12.1488V12.0601H41.3078C41.1083 12.0593 40.9465 12.0112 40.946 11.6846V9.45633H41.645C41.9236 9.45748 41.9602 9.69448 41.968 9.84854L42.0587 9.81543C42.0587 9.70715 42.059 9.59858 42.067 9.48973C42.0785 9.38289 42.0941 9.27635 42.1094 9.17034L42.0466 9.15969C42.0276 9.28064 41.9104 9.28729 41.8071 9.28553H39.6432C39.5453 9.28668 39.4393 9.28092 39.4016 9.1643H39.3337C39.3325 9.27948 39.3247 9.39125 39.3083 9.50183C39.2974 9.61615 39.2769 9.72615 39.2614 9.8353H39.3504C39.4054 9.54586 39.4413 9.45198 39.7517 9.45633V9.4929C39.4439 9.49811 39.4508 9.5502 39.3828 9.85718L39.3797 9.87129H39.2196L39.2222 9.85053C39.2395 9.73335 39.2602 9.61756 39.2723 9.49748C39.2893 9.38143 39.2974 9.26624 39.2974 9.14702V9.12888H39.4286L39.4321 9.14184C39.4612 9.24666 39.5368 9.24723 39.6431 9.24896L39.6641 9.24954H41.807C41.9216 9.24726 42.0054 9.2455 42.0126 9.13726L42.0137 9.11739L42.0333 9.12145L42.1511 9.13988L42.1479 9.15802C42.1309 9.26918 42.1151 9.38148 42.1024 9.49293C42.0941 9.60351 42.0941 9.7161 42.0941 9.82784V9.84079L42.0823 9.8454L41.9352 9.89897L41.9343 9.87475C41.9236 9.7187 41.9072 9.4929 41.645 9.4929H40.9819V11.6846C40.9863 11.9979 41.1103 12.0195 41.3078 12.0236H41.4051V12.1843L41.3873 12.1843ZM42.2834 12.0414H42.3416C42.4916 12.0414 42.6484 12.0213 42.6484 11.805V9.62911C42.6484 9.41253 42.4916 9.39211 42.3416 9.39211H42.2834V9.26742C42.4455 9.26742 42.6943 9.28383 42.8972 9.28383C43.1057 9.28383 43.3547 9.26742 43.5499 9.26742V9.39211H43.4917C43.3423 9.39211 43.184 9.41256 43.184 9.62911V11.805C43.184 12.0213 43.3423 12.0414 43.4917 12.0414H43.5499V12.1667C43.3504 12.1667 43.1011 12.1503 42.8941 12.1503C42.6902 12.1503 42.4455 12.1667 42.2834 12.1667V12.0414Z" fill="white"/>
<path d="M43.5496 12.1843C43.349 12.1843 43.1005 12.1673 42.8935 12.1673C42.6905 12.1673 42.4452 12.1843 42.2831 12.1843H42.265V12.0236H42.3413C42.4913 12.0213 42.6289 12.0083 42.6295 11.805V9.62912C42.6289 9.42639 42.4913 9.41254 42.3413 9.40969H42.265V9.24961H42.2831C42.4452 9.24961 42.6946 9.26545 42.8969 9.26545C43.104 9.26545 43.353 9.24961 43.5496 9.24961H43.5672V9.40969H43.4915C43.3397 9.41257 43.2036 9.42639 43.2015 9.62912V11.805C43.2036 12.0083 43.3398 12.0213 43.4915 12.0236H43.5672V12.1843H43.5496ZM43.5309 12.148V12.0602H43.4915C43.3426 12.0602 43.1664 12.034 43.1664 11.805V9.62912C43.1664 9.39961 43.3426 9.37369 43.4915 9.37369H43.5309V9.28557C43.3392 9.28673 43.0994 9.3017 42.8969 9.3017C42.7003 9.3017 42.4622 9.28673 42.3013 9.28557V9.37369H42.3413C42.489 9.37369 42.6658 9.39961 42.6664 9.62912V11.805C42.6658 12.0339 42.489 12.0602 42.3413 12.0602H42.3013V12.148C42.4614 12.1463 42.6963 12.1321 42.8935 12.1321C43.0948 12.1321 43.3352 12.1471 43.5309 12.148H43.5309ZM45.2052 9.20523C46.0902 9.20523 46.7956 9.7541 46.7956 10.6385C46.7956 11.594 46.1106 12.2289 45.2268 12.2289C44.3458 12.2289 43.6739 11.6308 43.6739 10.7378C43.6739 9.87418 44.3418 9.20523 45.2052 9.20523ZM45.268 12.046C46.0735 12.046 46.2137 11.3353 46.2137 10.7297C46.2137 10.1227 45.8867 9.3878 45.1972 9.3878C44.4705 9.3878 44.2549 10.0357 44.2549 10.5918C44.2549 11.3353 44.5952 12.046 45.268 12.046Z" fill="white"/>
<path d="M43.6554 10.7378C43.6572 9.86409 44.3332 9.18822 45.2052 9.18707V9.22275C44.3519 9.22275 43.6914 9.88309 43.6906 10.7378C43.6926 11.6207 44.355 12.2099 45.2268 12.2101C46.102 12.2099 46.7772 11.5838 46.7786 10.6376C46.7777 9.76445 46.083 9.2239 45.2052 9.22275V9.18707C46.0971 9.18765 46.812 9.74199 46.8137 10.6376C46.8129 11.6031 46.119 12.2447 45.2268 12.2464C44.3389 12.2447 43.6572 11.6405 43.6555 10.7378H43.6554V10.7378ZM44.237 10.5918C44.2381 10.0332 44.4564 9.36907 45.1974 9.36907C45.9022 9.37083 46.2313 10.1195 46.2324 10.7297C46.2313 11.3353 46.0888 12.0633 45.2683 12.0633V12.0282C46.0577 12.0271 46.1945 11.3353 46.1964 10.7297C46.1964 10.1276 45.8722 9.40682 45.1974 9.40593C44.4852 9.40679 44.2744 10.0386 44.273 10.5918C44.2736 11.3316 44.6107 12.0264 45.2683 12.0282V12.0633C44.579 12.0624 44.2381 11.3397 44.237 10.5918ZM49.5936 11.348L49.6019 11.3399V9.78259C49.6019 9.44164 49.3647 9.39211 49.2401 9.39211H49.1502V9.26739C49.3448 9.26739 49.5357 9.2838 49.7303 9.2838C49.9011 9.2838 50.0712 9.26739 50.2416 9.26739V9.39211H50.1789C50.005 9.39211 49.8095 9.42519 49.8095 9.91938V11.8096C49.8095 11.9548 49.8136 12.0999 49.8346 12.2286H49.6771L47.5385 9.84453V11.5559C47.5385 11.9173 47.6088 12.0415 47.9283 12.0415H47.9994V12.1667C47.8207 12.1667 47.6425 12.1503 47.4639 12.1503C47.2771 12.1503 47.0856 12.1667 46.8988 12.1667V12.0415H46.9572C47.2443 12.0415 47.3304 11.8468 47.3304 11.5148V9.76534C47.3304 9.53295 47.1403 9.39214 46.9529 9.39214H46.8988V9.26745C47.0565 9.26745 47.2186 9.28383 47.3761 9.28383C47.5008 9.28383 47.6209 9.26745 47.7458 9.26745L49.5936 11.348Z" fill="white"/>
<path d="M49.8343 12.2464L49.6624 12.2404L47.5558 9.89145V11.5559C47.5604 11.917 47.6154 12.0193 47.9272 12.023H48.017V12.1843H47.9989C47.8189 12.1843 47.6407 12.1676 47.4634 12.1676C47.2771 12.1676 47.0865 12.1843 46.8979 12.1843H46.8806V12.023H46.9566C47.2304 12.0222 47.309 11.8459 47.3125 11.5147V9.76535C47.3119 9.54419 47.1308 9.40999 46.9523 9.40971H46.8806V9.2496H46.8979C47.0571 9.2496 47.2189 9.26546 47.3755 9.26546C47.4988 9.26546 47.6185 9.2496 47.759 9.25567L49.5832 11.3103V9.78294C49.582 9.45238 49.3609 9.41261 49.2394 9.40973H49.1303V9.24965H49.149C49.3445 9.24965 49.5359 9.26549 49.7291 9.26549C49.8995 9.26549 50.0688 9.24965 50.241 9.24965H50.2588V9.40973H50.1782C50.0075 9.41463 49.8307 9.43018 49.8273 9.91944V11.8094C49.8273 11.9545 49.8304 12.0993 49.8506 12.2263L49.854 12.2465H49.8343V12.2464ZM49.6765 12.2102H49.8124C49.7943 12.0855 49.7911 11.9472 49.7911 11.8093V9.91938C49.7911 9.42004 50.0004 9.37483 50.1784 9.37339H50.2232V9.28556C50.0595 9.28672 49.8954 9.30169 49.7293 9.30169C49.5404 9.30169 49.3546 9.28672 49.1667 9.28556V9.37339H49.2395C49.3682 9.37483 49.6187 9.43159 49.6187 9.78288L49.6141 11.3523L49.6063 11.361L49.5931 11.3742L47.7453 9.28559C47.623 9.28559 47.5017 9.30172 47.3757 9.30172C47.2228 9.30172 47.067 9.28674 46.9159 9.28559V9.37342H46.9524C47.1474 9.37486 47.348 9.52201 47.348 9.76535V11.5147C47.348 11.8468 47.2553 12.0593 46.9567 12.0604L46.9159 12.0601V12.148C47.0961 12.1471 47.2809 12.1321 47.4634 12.1321C47.6365 12.1321 47.8084 12.1471 47.9808 12.148V12.0604H47.9273C47.6014 12.0601 47.5199 11.917 47.5199 11.5559V9.79786L49.6765 12.2102ZM49.593 11.3477L49.6062 11.3359L49.593 11.3477ZM49.5832 11.3399V11.3385L49.5798 11.3353L49.5832 11.3399ZM50.9082 11.5726C50.8676 11.7134 50.8172 11.8223 50.8172 11.8963C50.8172 12.0213 50.992 12.0414 51.1282 12.0414H51.1745V12.1667C51.0084 12.1577 50.838 12.1503 50.6719 12.1503C50.5219 12.1503 50.373 12.1578 50.2242 12.1667V12.0414H50.2478C50.4104 12.0414 50.5481 11.9461 50.6094 11.7713L51.2745 9.8655C51.328 9.71173 51.4031 9.5041 51.4274 9.35007C51.5603 9.30486 51.7262 9.22192 51.8059 9.17182C51.8177 9.16753 51.8261 9.16318 51.8387 9.16318C51.8511 9.16318 51.8589 9.16318 51.8673 9.17614C51.8799 9.20896 51.8929 9.24669 51.9053 9.2798L52.6688 11.4522C52.7186 11.5974 52.7681 11.7509 52.8228 11.8758C52.8726 11.9922 52.9601 12.0414 53.0966 12.0414H53.122V12.1667C52.9348 12.1577 52.748 12.1503 52.5485 12.1503C52.3455 12.1503 52.1376 12.1578 51.9257 12.1667V12.0414H51.9718C52.0665 12.0414 52.2295 12.0253 52.2295 11.9213C52.2295 11.8675 52.1917 11.7555 52.1454 11.6221L51.9842 11.1404H51.0416L50.9082 11.5726ZM51.5151 9.73249H51.5068L51.1201 10.908H51.8971L51.5151 9.73249Z" fill="white"/>
<path d="M53.1206 12.1843C52.9337 12.1768 52.7472 12.1676 52.5489 12.1676C52.3464 12.1676 52.1386 12.1768 51.9267 12.1843L51.9083 12.1854V12.0236H51.9713C52.068 12.0236 52.2111 12.0011 52.2114 11.9214C52.2122 11.8741 52.1748 11.761 52.1285 11.6279L51.9707 11.1582H51.0544L50.9259 11.5778C50.8845 11.72 50.8349 11.8292 50.8358 11.8963C50.8358 11.9982 50.9912 12.0236 51.1286 12.0236H51.1919V12.1854L51.1735 12.1843C51.0074 12.1768 50.8375 12.1676 50.6723 12.1676C50.5235 12.1676 50.3743 12.1768 50.2246 12.1843L50.2064 12.1854V12.0236H50.2482C50.4031 12.023 50.5326 11.934 50.5931 11.7656L51.2576 9.8595C51.3106 9.70544 51.3854 9.49839 51.4222 9.33338C51.5527 9.28817 51.7193 9.20524 51.8 9.15452C51.8109 9.15078 51.8222 9.14589 51.8391 9.14589C51.8501 9.14473 51.8713 9.14732 51.8846 9.17007C51.897 9.20264 51.9091 9.24034 51.9229 9.27403L52.6864 11.4462C52.736 11.5919 52.7858 11.7454 52.8396 11.8689C52.8882 11.979 52.9639 12.0224 53.0964 12.0236H53.1396V12.1854L53.1206 12.1843ZM51.944 12.1477C52.1492 12.1399 52.3513 12.1318 52.5489 12.1318C52.742 12.1318 52.9231 12.1399 53.1039 12.1471L53.1033 12.0604H53.0964C52.9559 12.0607 52.8578 12.0054 52.8062 11.883C52.7515 11.7569 52.702 11.6028 52.6525 11.458L51.8883 9.28555C51.876 9.25243 51.8633 9.21471 51.8532 9.18649C51.8498 9.18131 51.8501 9.1813 51.8469 9.1813H51.8391C51.8305 9.1813 51.8258 9.18418 51.8158 9.18706C51.7349 9.23803 51.5685 9.32094 51.4456 9.35293C51.4199 9.51017 51.3445 9.71722 51.291 9.87128L50.6262 11.7776C50.5631 11.9579 50.4181 12.0607 50.2482 12.0604H50.2421V12.1471C50.3849 12.1399 50.5277 12.1318 50.6722 12.1318C50.8332 12.1318 50.997 12.1399 51.1568 12.1471V12.0604H51.1286C50.9936 12.0587 50.8041 12.044 50.7992 11.8963C50.8001 11.8139 50.8516 11.7082 50.8916 11.5674L50.9086 11.5729L50.8916 11.5668L51.0284 11.1228H51.9966L52.163 11.6163C52.2088 11.75 52.2465 11.8603 52.2465 11.9213C52.2404 12.0489 52.0663 12.0578 51.9712 12.0604H51.9439V12.1477H51.944ZM51.0958 10.9256L51.4939 9.71434H51.5155V9.73248L51.5112 9.73334L51.5155 9.73248V9.71434H51.5285L51.9209 10.9256H51.0958ZM51.1456 10.8898H51.8717L51.5106 9.7774L51.1456 10.8898ZM51.4983 9.73769L51.5066 9.73452L51.4983 9.73769ZM54.1685 11.7595C54.1685 11.9257 54.2837 11.9752 54.4167 11.9922C54.5869 12.0048 54.7737 12.0048 54.9655 11.9838C55.1393 11.9628 55.2891 11.8632 55.3633 11.7595C55.4295 11.6679 55.467 11.5516 55.492 11.4603H55.6124C55.5669 11.697 55.5087 11.9303 55.4586 12.1667C55.0941 12.1667 54.728 12.1503 54.3631 12.1503C53.9972 12.1503 53.6325 12.1667 53.2671 12.1667V12.0414H53.3241C53.4744 12.0414 53.6368 12.0213 53.6368 11.7635V9.6291C53.6368 9.41252 53.4744 9.3921 53.3241 9.3921H53.2671V9.26741C53.4865 9.26741 53.7027 9.28382 53.9224 9.28382C54.1348 9.28382 54.3422 9.26741 54.554 9.26741V9.3921H54.4495C54.2923 9.3921 54.1685 9.39671 54.1685 9.61614V11.7595Z" fill="white"/>
<path d="M55.4603 12.1843C55.0944 12.1843 54.7291 12.1676 54.3649 12.1676C53.9992 12.1676 53.6339 12.1843 53.268 12.1843H53.2504V12.0236H53.3258C53.4764 12.0202 53.6186 12.0098 53.6204 11.7636V9.62832C53.6186 9.42645 53.4772 9.41263 53.3258 9.40972H53.2504V9.24964H53.268C53.4888 9.24964 53.705 9.26548 53.9243 9.26548C54.1351 9.26548 54.3424 9.24964 54.5557 9.24964H54.5728V9.40972H54.4515C54.2906 9.41433 54.1904 9.40684 54.1872 9.61622V11.7596C54.1884 11.9142 54.2898 11.956 54.4193 11.9741C54.4927 11.9793 54.5696 11.9825 54.6496 11.9825C54.7512 11.9825 54.8569 11.9776 54.964 11.966C55.1333 11.9462 55.279 11.8486 55.3504 11.7495C55.4143 11.6608 55.4512 11.5468 55.4759 11.4561L55.4797 11.4423H55.636L55.6322 11.4641C55.5853 11.7017 55.5283 11.9338 55.4779 12.1702L55.4745 12.1844H55.4603V12.1843ZM55.4453 12.148C55.4934 11.9228 55.5479 11.7025 55.5925 11.4779H55.5072C55.4813 11.5683 55.4445 11.6798 55.3791 11.7705C55.3017 11.8782 55.1479 11.9795 54.968 12.0017C54.8592 12.0129 54.7515 12.0187 54.6496 12.0187C54.5693 12.0187 54.4913 12.0149 54.4161 12.0097C54.2811 11.9948 54.1501 11.9372 54.1507 11.7595V9.61617C54.1507 9.3855 54.2966 9.3737 54.4515 9.3737H54.5373V9.28558C54.3326 9.28673 54.1311 9.30196 53.9243 9.30196C53.7093 9.30196 53.4991 9.28673 53.286 9.28558V9.3737H53.3258C53.4741 9.3737 53.6554 9.39961 53.6554 9.62826V11.7635C53.6554 12.0322 53.4749 12.0602 53.3258 12.0602H53.286V12.148C53.6451 12.1477 54.0041 12.1321 54.3648 12.1321C54.7256 12.1321 55.0861 12.1477 55.4453 12.148ZM55.5637 9.14937C55.8138 9.14937 56.0007 9.34173 56.0007 9.58823C56.0007 9.83358 55.8139 10.0242 55.5637 10.0242C55.3135 10.0242 55.1263 9.83358 55.1263 9.58823C55.1263 9.34176 55.3134 9.14937 55.5637 9.14937ZM55.5637 9.94272C55.7591 9.94272 55.9094 9.7757 55.9094 9.58823C55.9094 9.39961 55.7614 9.23115 55.5637 9.23115C55.367 9.23115 55.2167 9.39964 55.2167 9.58823C55.2167 9.7757 55.367 9.94272 55.5637 9.94272ZM55.346 9.81861V9.79701C55.3998 9.78952 55.4096 9.79125 55.4096 9.75785V9.43417C55.4096 9.3887 55.4047 9.37315 55.348 9.37542V9.35325H55.5717C55.6489 9.35325 55.7194 9.38982 55.7194 9.4693C55.7194 9.53438 55.6762 9.58247 55.616 9.60119L55.6877 9.70138C55.7214 9.74687 55.7591 9.78952 55.7841 9.80447V9.81858H55.699C55.6581 9.81858 55.6224 9.73248 55.5417 9.617H55.4934V9.76243C55.4934 9.79122 55.5034 9.78949 55.5573 9.79698V9.81858H55.346V9.81861ZM55.4934 9.58823H55.5449C55.6013 9.58823 55.6278 9.54533 55.6278 9.4765C55.6278 9.40681 55.5869 9.38231 55.542 9.38231H55.4934V9.58823Z" fill="white"/>
</svg>
