<svg width="28" height="24" viewBox="0 0 28 24" fill="none" xmlns="http://www.w3.org/2000/svg">
<path d="M14 23C14 23 1.5 16 1.5 7.50001C1.50025 5.99768 2.02082 4.5418 2.97318 3.37991C3.92555 2.21801 5.25093 1.42181 6.72399 1.12669C8.19704 0.831559 9.72685 1.05572 11.0533 1.76105C12.3798 2.46638 13.421 3.60935 14 4.99564L14 4.99565C14.579 3.60936 15.6202 2.46639 16.9467 1.76106C18.2731 1.05572 19.8029 0.83156 21.276 1.12669C22.7491 1.42181 24.0745 2.21801 25.0268 3.3799C25.9792 4.5418 26.4997 5.99768 26.5 7.50001C26.5 16 14 23 14 23Z" stroke="#9F9F9F" stroke-width="2" stroke-linecap="round" stroke-linejoin="round"/>
</svg>
